<?xml version="1.0" encoding="utf-8"?>
<!-- Generator: Adobe Illustrator 17.0.0, SVG Export Plug-In . SVG Version: 6.00 Build 0)  -->
<!DOCTYPE svg PUBLIC "-//W3C//DTD SVG 1.1//EN" "http://www.w3.org/Graphics/SVG/1.1/DTD/svg11.dtd">
<svg version="1.1" id="Layer_1" xmlns="http://www.w3.org/2000/svg" xmlns:xlink="http://www.w3.org/1999/xlink" x="0px" y="0px"
	 width="1750px" height="980px" viewBox="0 0 1750 980" enable-background="new 0 0 1750 980" xml:space="preserve">
<g>
	<rect fill-rule="evenodd" clip-rule="evenodd" fill="#0A0A0A" width="1750" height="980"/>
	<path fill-rule="evenodd" clip-rule="evenodd" fill="#333333" d="M1750,736.8c-81.3,131.2-226.6,218.7-392.3,218.7
		c-74.3,0-144.5-17.6-206.7-48.9H607.8c-62.2,31.3-132.4,48.9-206.7,48.9C234,955.4,87.7,866.6,6.8,733.5V255.1
		C87.7,122.1,234,33.2,401.1,33.2c74.3,0,144.5,17.6,206.7,48.9H1151c62.2-31.2,132.4-48.9,206.7-48.9c165.7,0,311,87.5,392.3,218.7
		V736.8z"/>
	<path fill-rule="evenodd" clip-rule="evenodd" fill="#1A1A1A" d="M1750,258.9v462.2c-79.8,137.5-228.6,230-399.1,230
		c-74.3,0-144.5-17.6-206.7-48.8H601c-62.2,31.2-132.4,48.8-206.7,48.8C227.2,951.1,80.9,862.2,0,729.2V250.8
		c80.9-133,227.2-221.9,394.3-221.9c74.3,0,144.5,17.6,206.7,48.9h543.3c62.2-31.3,132.4-48.9,206.7-48.9
		C1521.4,28.9,1670.2,121.4,1750,258.9L1750,258.9z"/>
</g>
<g>
	<g>
		<path fill-rule="evenodd" clip-rule="evenodd" fill="#0A0A0A" d="M875,267.4c122.9,0,222.6,99.7,222.6,222.6
			S997.9,712.6,875,712.6S652.4,612.9,652.4,490S752.1,267.4,875,267.4L875,267.4z"/>
		<path fill-rule="evenodd" clip-rule="evenodd" fill="#FFFF99" d="M809.5,400.3c10.9,0,19.7,8.9,19.7,19.8
			c0,10.9-8.9,19.7-19.7,19.7C804,426.7,804,413.5,809.5,400.3L809.5,400.3z M784.4,411.9l15.3-4.1v1.9l-15.3,4.1V411.9z M784.4,437
			l15.3-4.1v1.9l-15.3,4.1V437z M784.4,424.4l15.3-4.1v1.9l-15.3,4.1V424.4z"/>
		<path fill-rule="evenodd" clip-rule="evenodd" fill="#FFFF99" d="M945.9,439.8c10.9,0,19.8-8.9,19.8-19.7
			c0-10.9-8.9-19.8-19.8-19.8C940.5,413.5,940.5,426.7,945.9,439.8L945.9,439.8z M920.8,428.3l15.4,4.1v-1.9l-15.4-4.1V428.3z
			 M920.8,403.2l15.4,4.1v-1.9l-15.4-4.1V403.2z M920.8,415.7l15.4,4.1v-1.9l-15.4-4.1V415.7z"/>
		<path fill="#FF6600" d="M859.6,340l6.5,3h19.5l5.3-2.8h5.8c1.8,0,3,1.3,3.3,2.9c0.4,2.1-0.7,4.2-2.5,5.3l-6.4,3.7h-4.1l-3,1.8v2.7
			H867v-2.2l-9.9-9.9h-7.1V340H859.6z M887.6,345.4l0.4,3.7h2.3l5.7-3.3c0.7-0.4,1.2-1.3,1.1-2.1c0-0.1-0.1-0.5-0.3-0.5h-5
			L887.6,345.4z M884.9,349.8l-0.3-3.7h-19.1l-4.6-2.1l9.1,9.1v0.5h10.9v-1.3L884.9,349.8z"/>
		<path fill-rule="evenodd" clip-rule="evenodd" fill="#FF6600" d="M877.1,470.1h5.3v1.4h-5.3v4.6h5.3v1.3h-5.3v4.6h5.3v1.3h-5.3
			v4.6h5.3v1.4h-5.3v3.1c3.7,0.9,6.4,4.3,6.4,8.2c0,4.7-3.8,8.5-8.5,8.5c-4.7,0-8.4-3.8-8.4-8.5c0-3.9,2.7-7.2,6.3-8.2v-25
			c0-1.2,0.9-2.1,2.1-2.1l0,0c1.2,0,2.1,1,2.1,2.1V470.1z"/>
	</g>
	<g>
		<rect x="784.1" y="582.1" fill-rule="evenodd" clip-rule="evenodd" fill="#1A1A1A" width="181.9" height="45.2"/>
		<path fill="#FFFFFF" d="M800.3,617.4c-2.7,0-4.1-1.5-4.1-4.3v-16.7c0-2.9,1.4-4.3,4.1-4.3h2.4c2.7,0,4.1,1.5,4.1,4.3V613
			c0,2.9-1.4,4.3-4.1,4.3H800.3z M801,595.1c-0.9,0-1.3,0.5-1.3,1.5v16.2c0,1,0.5,1.5,1.5,1.5h0.8c0.9,0,1.4-0.5,1.4-1.5v-16.2
			c0-1-0.5-1.5-1.5-1.5H801z"/>
		<path fill="#FFFFFF" d="M830,617.4c-2.7,0-4.1-1.5-4.1-4.3v-16.7c0-2.9,1.4-4.3,4.1-4.3h2.4c2.7,0,4.1,1.5,4.1,4.3V613
			c0,2.9-1.4,4.3-4.1,4.3H830z M830.7,595.1c-0.9,0-1.3,0.5-1.3,1.5v16.2c0,1,0.5,1.5,1.5,1.5h0.9c0.9,0,1.3-0.5,1.3-1.5v-16.2
			c0-1-0.5-1.5-1.5-1.5H830.7z"/>
		<path fill="#FFFFFF" d="M859.7,617.4c-2.7,0-4.1-1.5-4.1-4.3v-16.7c0-2.9,1.4-4.3,4.1-4.3h2.4c2.7,0,4.1,1.5,4.1,4.3V613
			c0,2.9-1.4,4.3-4.1,4.3H859.7z M860.4,595.1c-0.9,0-1.4,0.5-1.4,1.5v16.2c0,1,0.5,1.5,1.5,1.5h0.8c0.9,0,1.3-0.5,1.3-1.5v-16.2
			c0-1-0.5-1.5-1.5-1.5H860.4z"/>
		<path fill="#FFFFFF" d="M889.5,617.4c-2.7,0-4.1-1.5-4.1-4.3v-16.7c0-2.9,1.3-4.3,4.1-4.3h2.3c2.7,0,4.1,1.5,4.1,4.3V613
			c0,2.9-1.3,4.3-4.1,4.3H889.5z M890.2,595.1c-0.9,0-1.4,0.5-1.4,1.5v16.2c0,1,0.5,1.5,1.5,1.5h0.8c0.9,0,1.3-0.5,1.3-1.5v-16.2
			c0-1-0.5-1.5-1.5-1.5H890.2z"/>
		<path fill="#FFFFFF" d="M919.2,617.4c-2.7,0-4.1-1.5-4.1-4.3v-16.7c0-2.9,1.3-4.3,4.1-4.3h2.3c2.7,0,4.1,1.5,4.1,4.3V613
			c0,2.9-1.3,4.3-4.1,4.3H919.2z M919.9,595.1c-0.9,0-1.3,0.5-1.3,1.5v16.2c0,1,0.5,1.5,1.5,1.5h0.8c0.9,0,1.4-0.5,1.4-1.5v-16.2
			c0-1-0.5-1.5-1.5-1.5H919.9z"/>
		<path fill="#FFFFFF" d="M948.9,617.4c-2.7,0-4.1-1.5-4.1-4.3v-16.7c0-2.9,1.4-4.3,4.1-4.3h2.4c2.7,0,4.1,1.5,4.1,4.3V613
			c0,2.9-1.4,4.3-4.1,4.3H948.9z M949.6,595.1c-0.9,0-1.3,0.5-1.3,1.5v16.2c0,1,0.5,1.5,1.5,1.5h0.8c0.9,0,1.4-0.5,1.4-1.5v-16.2
			c0-1-0.5-1.5-1.5-1.5H949.6z"/>
		<rect x="933.2" y="613.9" fill-rule="evenodd" clip-rule="evenodd" fill="#FFFFFF" width="3.7" height="3.4"/>
	</g>
</g>
<g>
	<path fill-rule="evenodd" clip-rule="evenodd" fill="#0A0A0A" d="M399.1,173.2c175,0,316.8,141.9,316.8,316.8
		S574,806.8,399.1,806.8S82.3,665,82.3,490S224.1,173.2,399.1,173.2L399.1,173.2z"/>
	<path fill-rule="evenodd" clip-rule="evenodd" fill="#4D4D4D" d="M399.1,172.1c175.6,0,317.9,142.3,317.9,317.9
		c0,59.2-16.1,114.5-44.3,161.9l-6.7-4c27.4-46.3,43.2-100.3,43.2-158c0-171.3-138.8-310.1-310.1-310.1S89,318.7,89,490
		c0,57.7,15.8,111.7,43.2,158l-6.7,4C97.3,604.5,81.2,549.2,81.2,490C81.2,314.4,223.5,172.1,399.1,172.1L399.1,172.1z"/>
	<path fill-rule="evenodd" clip-rule="evenodd" fill="#00CCFF" d="M399.1,179.9C227.8,179.9,89,318.7,89,490
		c0,57.7,15.8,111.7,43.2,158l-6.7,4C97.3,604.5,81.2,549.2,81.2,490c0-175.6,142.3-317.9,317.9-317.9V179.9z"/>
	<path fill-rule="evenodd" clip-rule="evenodd" fill="#FFFFFF" d="M399.1,308.5c100.2,0,181.5,81.3,181.5,181.5
		c0,100.3-81.3,181.5-181.5,181.5c-100.3,0-181.5-81.3-181.5-181.5C217.5,389.8,298.8,308.5,399.1,308.5L399.1,308.5z M399.1,314
		c97.2,0,176,78.8,176,176s-78.8,176-176,176c-97.2,0-176-78.8-176-176S301.8,314,399.1,314L399.1,314z"/>
	<path fill-rule="evenodd" clip-rule="evenodd" fill="#034587" d="M399.1,179.6c13.4,0,26.5,0.8,39.5,2.5l-3.9,29.3
		c-11.7-1.5-23.5-2.2-35.6-2.2c-12.1,0-23.9,0.7-35.6,2.2l-3.8-29.3C372.5,180.4,385.7,179.6,399.1,179.6L399.1,179.6z M440.7,182.3
		c26.6,3.6,52.2,10.5,76.3,20.4L505.6,230c-21.7-8.9-44.8-15.2-68.8-18.4L440.7,182.3z M518.9,203.5c24.5,10.3,47.5,23.6,68.3,39.5
		l-18,23.4c-18.8-14.4-39.5-26.4-61.6-35.7L518.9,203.5z M588.9,244.4c20.9,16.2,39.7,34.9,55.8,55.8l-23.5,18
		c-14.6-18.8-31.5-35.7-50.3-50.3L588.9,244.4z M646,301.9c15.9,20.9,29.3,43.8,39.6,68.3l-27.3,11.3c-9.3-22.1-21.3-42.8-35.7-61.6
		L646,301.9z M686.4,372.2c9.9,24.1,16.8,49.6,20.4,76.3l-29.3,3.8c-3.2-24-9.5-47.1-18.4-68.8L686.4,372.2z M707,450.5
		c1.6,13,2.5,26.1,2.5,39.5c0,13.4-0.8,26.6-2.5,39.5l-29.3-3.8c1.5-11.7,2.2-23.6,2.2-35.6c0-12.1-0.7-23.9-2.2-35.6L707,450.5z
		 M706.7,531.6c-3.6,26.6-10.5,52.2-20.4,76.3L659,596.5c8.9-21.7,15.2-44.8,18.4-68.8L706.7,531.6z M685.5,609.8
		c-5.5,13.1-11.8,25.6-18.9,37.7l-25.5-15c6.4-10.9,12.1-22.2,17-34L685.5,609.8z M131.5,647.5c-7.1-12-13.4-24.6-18.9-37.7
		l27.3-11.3c4.9,11.8,10.6,23.1,17.1,34L131.5,647.5z M111.8,607.8c-9.9-24-16.8-49.6-20.4-76.3l29.3-3.9c3.2,24,9.5,47.1,18.4,68.8
		L111.8,607.8z M91.1,529.5c-1.6-12.9-2.5-26.1-2.5-39.5c0-13.4,0.8-26.5,2.5-39.5l29.3,3.9c-1.5,11.7-2.2,23.5-2.2,35.6
		c0,12.1,0.8,23.9,2.2,35.6L91.1,529.5z M91.4,448.4c3.6-26.6,10.5-52.2,20.4-76.3l27.3,11.3c-8.9,21.7-15.2,44.8-18.4,68.8
		L91.4,448.4z M112.6,370.2c10.3-24.5,23.6-47.5,39.5-68.3l23.4,18c-14.4,18.8-26.4,39.5-35.7,61.6L112.6,370.2z M153.4,300.2
		c16.1-20.9,34.9-39.7,55.8-55.8l18,23.5c-18.8,14.6-35.8,31.5-50.4,50.3L153.4,300.2z M210.9,243.1c20.8-15.9,43.8-29.3,68.3-39.5
		l11.3,27.3c-22.2,9.3-42.8,21.3-61.7,35.7L210.9,243.1z M281.2,202.7c24-9.9,49.6-16.8,76.3-20.4l3.9,29.3
		c-24,3.2-47.1,9.5-68.8,18.4L281.2,202.7z"/>
	<path fill-rule="evenodd" clip-rule="evenodd" fill="#4D4D4D" d="M238.9,219.5l6-3.4l16.7,28.9l-6,3.5L238.9,219.5z M395.6,175.7
		h6.9v33.5h-6.9V175.7z M673,644.2l-3.5,6l-28.9-16.7l3.5-6L673,644.2z M713.4,486.5v6.9h-33.5v-6.9H713.4z M669.5,329.9l3.5,6
		L644,352.6l-3.5-6L669.5,329.9z M553.2,216.1l6,3.4l-16.7,29l-6-3.5L553.2,216.1z M128.6,650.2l-3.4-6l28.9-16.7l3.5,6L128.6,650.2
		z M84.8,493.5v-6.9h33.4v6.9H84.8z M125.2,335.9l3.4-6l29,16.7l-3.5,6L125.2,335.9z"/>
	<path fill-rule="evenodd" clip-rule="evenodd" fill="#00CCFF" d="M238.9,219.5l6-3.4l16.7,28.9l-6,3.5L238.9,219.5z M399.1,175.7
		v33.5h-3.5v-33.5H399.1z M128.6,650.2l-3.4-6l28.9-16.7l3.5,6L128.6,650.2z M84.8,493.5v-6.9h33.4v6.9H84.8z M125.2,335.9l3.4-6
		l29,16.7l-3.5,6L125.2,335.9z"/>
	<path fill-rule="evenodd" clip-rule="evenodd" fill="#4D4D4D" d="M315.7,186.9l4-1.1l6.1,22.8l-4,1L315.7,186.9z M703.2,569.3
		l-1.1,4l-22.8-6.1l1.1-4L703.2,569.3z M702.1,406.7l1.1,4l-22.8,6.1l-1.1-4L702.1,406.7z M619.8,266.3l2.9,2.9l-16.7,16.7l-2.9-2.9
		L619.8,266.3z M478.4,185.9l4,1.1l-6.1,22.8l-4-1L478.4,185.9z M96,573.3l-1.1-4l22.8-6.1l1.1,4L96,573.3z M95,410.7l1.1-4
		l22.8,6.1l-1.1,4L95,410.7z M175.4,269.2l2.9-2.9L195,283l-2.9,2.9L175.4,269.2z"/>
	<path fill-rule="evenodd" clip-rule="evenodd" fill="#00CCFF" d="M315.7,186.9l4-1.1l6.1,22.8l-4,1L315.7,186.9z M96,573.3l-1.1-4
		l22.8-6.1l1.1,4L96,573.3z M95,410.7l1.1-4l22.8,6.1l-1.1,4L95,410.7z M175.4,269.2l2.9-2.9L195,283l-2.9,2.9L175.4,269.2z"/>
	<polygon fill-rule="evenodd" clip-rule="evenodd" fill="#FFFFFF" points="353.1,454.3 445,454.3 480.9,457.5 317.3,457.5 	"/>
	<polygon fill-rule="evenodd" clip-rule="evenodd" fill="#FFFFFF" points="353.1,538.4 445,538.4 480.9,535.2 317.3,535.2 	"/>
	<path fill="#FFFFFF" d="M372.1,496.1c1.1,0,2.3,0.1,3.6,0.3c1.3,0.2,2.6,0.5,3.9,0.9c1.3,0.4,2.5,0.9,3.7,1.6
		c1.2,0.7,2.1,1.4,2.9,2.4c0.8,0.9,1.4,2,1.6,3.2c0.3,1.2,0.2,2.6-0.2,4.2c-0.5,1.5-1.2,2.9-2.1,4.1c-0.9,1.2-2.1,2.2-3.4,3.1
		c-1.3,0.9-2.6,1.6-4.1,2.2c-1.5,0.6-3,1.1-4.4,1.4c-1.5,0.4-3,0.6-4.3,0.8c-1.4,0.1-2.6,0.2-3.7,0.2s-2.3-0.1-3.6-0.2
		c-1.3-0.2-2.6-0.5-4-0.8c-1.3-0.3-2.5-0.8-3.7-1.4c-1.2-0.6-2.1-1.3-2.9-2.2s-1.4-1.9-1.6-3.1s-0.2-2.6,0.2-4.1
		c0.5-1.6,1.1-3,2.1-4.3c1-1.3,2.1-2.3,3.4-3.3c1.3-0.9,2.7-1.7,4.1-2.3c1.5-0.7,3-1.2,4.5-1.5c1.5-0.4,3-0.7,4.4-0.9
		C369.7,496.2,371,496.1,372.1,496.1L372.1,496.1z M364.5,524.6c2.1,0,4.2-0.2,6.5-0.5c2.2-0.4,4.5-0.9,6.6-1.6
		c2.2-0.8,4.2-1.8,6.2-3c1.9-1.3,3.6-2.8,5-4.5c1.4-1.8,2.4-3.9,3.1-6.3c0.5-1.9,0.6-3.6,0.3-5.1c-0.3-1.6-0.9-3-1.9-4.2
		c-0.9-1.2-2-2.2-3.4-3c-1.3-0.8-2.8-1.4-4.3-1.8c1.8-0.5,3.5-1.1,5.2-1.9c1.7-0.8,3.2-1.7,4.7-2.8c1.4-1.1,2.6-2.3,3.6-3.7
		c1-1.4,1.8-3,2.2-4.8c0.6-2.4,0.7-4.4,0.2-6.2c-0.4-1.8-1.3-3.2-2.5-4.4c-1.2-1.2-2.7-2.1-4.4-2.8c-1.8-0.7-3.6-1.2-5.6-1.5
		c-2-0.3-3.9-0.5-5.9-0.5s-4,0.1-6.2,0.5c-2.2,0.3-4.3,0.8-6.4,1.6c-2.1,0.7-4.1,1.7-6,2.9s-3.5,2.6-4.8,4.4c-1.4,1.7-2.3,3.7-3,6.1
		c-0.5,1.8-0.6,3.4-0.4,4.7c0.2,1.4,0.7,2.6,1.5,3.7c0.8,1.1,1.8,2,3,2.7c1.2,0.8,2.6,1.4,4.1,1.9c-1.8,0.4-3.5,0.9-5.2,1.7
		c-1.7,0.8-3.4,1.8-4.8,3c-1.5,1.2-2.8,2.6-4,4.2c-1.1,1.6-2,3.4-2.5,5.3c-0.6,2.4-0.7,4.5-0.2,6.3c0.5,1.8,1.3,3.3,2.6,4.5
		c1.3,1.2,2.8,2.2,4.6,3c1.8,0.8,3.7,1.3,5.8,1.6C360.3,524.4,362.4,524.6,364.5,524.6L364.5,524.6z M379.2,469.7
		c1.4,0,2.8,0.1,4.4,0.3c1.5,0.2,3,0.7,4.4,1.2c1.4,0.6,2.7,1.3,3.8,2.2c1.1,0.9,1.8,2,2.2,3.4c0.4,1.3,0.4,2.9,0,4.7
		c-0.5,1.7-1.3,3.2-2.4,4.4c-1.2,1.3-2.5,2.3-4,3.1c-1.5,0.8-3.2,1.5-4.9,2c-1.7,0.5-3.4,0.8-5.1,1.1c-1.6,0.2-3.1,0.3-4.5,0.3
		s-2.8-0.1-4.4-0.3c-1.5-0.2-3-0.6-4.5-1.1c-1.5-0.5-2.7-1.2-3.8-2s-1.9-1.9-2.3-3.1c-0.5-1.2-0.5-2.7,0-4.4
		c0.5-1.8,1.3-3.4,2.5-4.8c1.2-1.3,2.5-2.4,4-3.4c1.6-0.9,3.2-1.6,4.9-2.1c1.7-0.5,3.4-0.9,5.1-1.1
		C376.3,469.8,377.8,469.7,379.2,469.7L379.2,469.7z M409.8,488.6c0.7-2.7,1.8-5,3.1-7.1c1.3-2.1,2.9-3.9,4.6-5.3
		c1.7-1.5,3.6-2.7,5.5-3.5c2-0.9,3.9-1.5,5.9-1.8c2-0.3,3.9-0.3,5.7,0c1.9,0.3,3.5,0.9,5,1.8c1.5,0.9,2.7,2.1,3.7,3.6
		c0.9,1.5,1.5,3.3,1.8,5.3c0.2,2.1,0,4.4-0.7,7.1l-3.6,13.4c-0.7,2.7-1.7,5-3.1,7.1c-1.3,2.1-2.9,3.9-4.6,5.3
		c-1.7,1.5-3.6,2.7-5.6,3.6c-2,0.9-3.9,1.5-5.9,1.8c-2,0.3-3.9,0.3-5.7,0c-1.8-0.3-3.5-0.9-5-1.8c-1.5-0.9-2.7-2.1-3.6-3.6
		c-0.9-1.5-1.5-3.3-1.8-5.4c-0.2-2.1,0-4.4,0.7-7.1L409.8,488.6z M402,502c-0.9,3.3-1.2,6.2-0.9,8.8c0.3,2.5,1,4.7,2.2,6.5
		c1.2,1.8,2.7,3.3,4.6,4.4c1.9,1.1,3.9,1.8,6.2,2.2c2.3,0.4,4.7,0.4,7.2,0c2.5-0.4,4.9-1.1,7.4-2.2c2.4-1.1,4.7-2.5,6.9-4.3
		c2.2-1.8,4.1-4,5.7-6.5c1.6-2.5,2.9-5.4,3.8-8.7l3.6-13.4c0.9-3.3,1.2-6.2,0.9-8.7c-0.3-2.6-1-4.7-2.2-6.5
		c-1.2-1.8-2.7-3.3-4.5-4.3c-1.9-1.1-3.9-1.8-6.2-2.2c-2.3-0.4-4.7-0.4-7.1,0c-2.5,0.3-4.9,1.1-7.4,2.2c-2.4,1.1-4.7,2.5-6.9,4.3
		c-2.1,1.8-4.1,4-5.7,6.5c-1.6,2.6-2.9,5.5-3.8,8.7L402,502z"/>
	<path fill="#FFFFFF" d="M365.4,549.6l-5.6,20.7h3.6l1.8-6.6l4,6.6h4.3l0.1-0.2l-4.8-7.5l7.7-6.7l0-0.2h-4.3l-6.5,5.8l3.2-12H365.4z
		 M388.5,570.3l2.1-7.8c0.1-0.5,0.3-0.9,0.6-1.4c0.2-0.4,0.6-0.8,0.9-1.2c0.4-0.3,0.8-0.6,1.2-0.8c0.5-0.2,0.9-0.3,1.4-0.3
		c0.5,0,0.9,0.1,1.2,0.3c0.3,0.2,0.5,0.5,0.6,0.8c0.1,0.3,0.2,0.7,0.2,1.1c0,0.4-0.1,0.9-0.2,1.4l-2.1,7.9h3.6l2.1-7.9
		c0.4-1.5,0.5-2.7,0.3-3.7c-0.2-1-0.7-1.8-1.4-2.4c-0.8-0.5-1.9-0.8-3.2-0.8c-0.6,0-1.3,0.1-1.9,0.2c-0.6,0.2-1.2,0.5-1.9,0.8
		c-0.6,0.4-1.3,0.9-1.9,1.6c-0.1-0.7-0.4-1.2-0.7-1.6c-0.4-0.4-0.8-0.7-1.3-0.9c-0.5-0.1-1-0.2-1.6-0.2c-0.5,0-1,0.1-1.5,0.2
		c-0.5,0.1-1,0.3-1.5,0.6c-0.5,0.3-0.9,0.7-1.4,1.2l0.2-1.8h-3.3l-3.9,14.6h3.6l2.1-7.8c0.1-0.5,0.3-0.9,0.6-1.4
		c0.2-0.5,0.6-0.8,0.9-1.2c0.4-0.3,0.8-0.6,1.2-0.8c0.5-0.2,0.9-0.3,1.4-0.3c0.5,0,0.9,0.1,1.2,0.3c0.3,0.2,0.6,0.5,0.7,0.8
		c0.2,0.3,0.2,0.7,0.3,1.2c0,0.5-0.1,0.9-0.2,1.4l-2.1,7.8H388.5z M416.2,547.6l-16.6,25.1h3.7l16.6-25.1H416.2z M421.7,549.6
		l-5.6,20.8h3.6l2-7.5c0.2-0.6,0.4-1.1,0.7-1.6c0.3-0.5,0.7-0.9,1.1-1.3c0.4-0.4,0.9-0.7,1.4-0.9c0.5-0.2,1-0.3,1.5-0.3
		c0.7,0,1.2,0.1,1.6,0.4c0.4,0.2,0.7,0.7,0.8,1.2s0.1,1.3-0.1,2.2l-2.1,7.7h3.6l2.1-7.7c0.4-1.4,0.5-2.7,0.4-3.7
		c-0.1-1.1-0.6-1.9-1.3-2.5c-0.7-0.6-1.8-0.9-3.1-0.9c-0.6,0-1.1,0-1.7,0.2c-0.6,0.1-1.2,0.4-1.7,0.7c-0.6,0.3-1.2,0.8-1.8,1.3
		l2.2-8.1H421.7z"/>
</g>
<g>
	<path fill-rule="evenodd" clip-rule="evenodd" fill="#0A0A0A" d="M1350.9,171.5c175.9,0,318.5,142.6,318.5,318.5
		s-142.6,318.5-318.5,318.5c-175.9,0-318.5-142.6-318.5-318.5S1175.1,171.5,1350.9,171.5L1350.9,171.5z"/>
	<path fill-rule="evenodd" clip-rule="evenodd" fill="#4D4D4D" d="M1350.9,171.5c175.6,0,317.9,142.3,317.9,317.9
		c0,59.1-16.2,114.5-44.3,161.9l-6.7-4c27.4-46.3,43.2-100.2,43.2-158c0-171.3-138.8-310.1-310.1-310.1
		c-171.3,0-310.1,138.8-310.1,310.1c0,57.7,15.8,111.7,43.2,158l-6.7,4c-28.1-47.4-44.3-102.8-44.3-161.9
		C1033.1,313.8,1175.4,171.5,1350.9,171.5L1350.9,171.5z"/>
	<path fill-rule="evenodd" clip-rule="evenodd" fill="#B57DFF" d="M1350.9,179.3c-171.3,0-310.1,138.8-310.1,310.1
		c0,57.7,15.8,111.7,43.2,158l-6.7,4c-28.1-47.4-44.3-102.8-44.3-161.9c0-175.6,142.3-317.9,317.9-317.9V179.3z"/>
	<path fill-rule="evenodd" clip-rule="evenodd" fill="#FFFFFF" d="M1350.9,307.9c100.3,0,181.5,81.3,181.5,181.5
		c0,100.3-81.3,181.5-181.5,181.5c-100.2,0-181.5-81.3-181.5-181.5C1169.4,389.2,1250.7,307.9,1350.9,307.9L1350.9,307.9z
		 M1350.9,313.4c97.2,0,176,78.8,176,176c0,97.2-78.8,176-176,176c-97.2,0-176-78.8-176-176C1174.9,392.2,1253.7,313.4,1350.9,313.4
		L1350.9,313.4z"/>
	<path fill-rule="evenodd" clip-rule="evenodd" fill="#6600CC" d="M1350.9,179c13.4,0,26.6,0.8,39.5,2.5l-3.9,29.3
		c-11.7-1.5-23.6-2.2-35.6-2.2c-12,0-23.9,0.8-35.6,2.2l-3.8-29.3C1324.4,179.8,1337.6,179,1350.9,179L1350.9,179z M1392.5,181.8
		c26.6,3.6,52.2,10.5,76.3,20.4l-11.3,27.3c-21.7-8.9-44.8-15.2-68.8-18.4L1392.5,181.8z M1470.7,203c24.5,10.3,47.5,23.6,68.4,39.5
		l-18,23.5c-18.8-14.4-39.5-26.4-61.7-35.7L1470.7,203z M1540.8,243.8c20.9,16.2,39.7,34.9,55.8,55.8l-23.4,18
		c-14.6-18.8-31.5-35.8-50.4-50.4L1540.8,243.8z M1597.9,301.3c15.9,20.9,29.3,43.8,39.5,68.3l-27.3,11.3
		c-9.3-22.2-21.3-42.8-35.7-61.7L1597.9,301.3z M1638.2,371.6c9.9,24,16.8,49.6,20.4,76.3l-29.3,3.8c-3.2-24-9.5-47.1-18.4-68.8
		L1638.2,371.6z M1658.9,450c1.6,12.9,2.5,26.1,2.5,39.4c0,13.4-0.8,26.6-2.5,39.5l-29.3-3.8c1.5-11.7,2.2-23.6,2.2-35.6
		c0-12-0.8-23.9-2.2-35.6L1658.9,450z M1658.6,531c-3.6,26.7-10.5,52.2-20.4,76.3l-27.3-11.3c8.9-21.7,15.2-44.8,18.4-68.8
		L1658.6,531z M1637.4,609.2c-5.5,13-11.8,25.6-18.9,37.7l-25.4-15c6.4-10.9,12.1-22.3,17-34L1637.4,609.2z M1083.4,646.9
		c-7.1-12.1-13.5-24.6-18.9-37.7l27.3-11.3c4.9,11.8,10.6,23.1,17,34L1083.4,646.9z M1063.7,607.3c-9.9-24-16.8-49.6-20.4-76.3
		l29.3-3.8c3.2,24,9.5,47.1,18.4,68.8L1063.7,607.3z M1043,528.9c-1.6-12.9-2.5-26.1-2.5-39.5c0-13.4,0.8-26.5,2.5-39.4l29.3,3.9
		c-1.5,11.7-2.2,23.6-2.2,35.6c0,12.1,0.7,24,2.2,35.6L1043,528.9z M1043.3,447.9c3.6-26.7,10.5-52.2,20.4-76.3l27.3,11.3
		c-8.9,21.7-15.2,44.8-18.4,68.8L1043.3,447.9z M1064.5,369.6c10.3-24.5,23.6-47.5,39.5-68.3l23.4,18
		c-14.3,18.8-26.4,39.5-35.7,61.6L1064.5,369.6z M1105.3,299.6c16.2-20.9,34.9-39.7,55.8-55.8l18,23.4
		c-18.9,14.6-35.8,31.5-50.4,50.4L1105.3,299.6z M1162.8,242.5c20.9-15.9,43.8-29.3,68.3-39.5l11.3,27.3
		c-22.1,9.3-42.8,21.3-61.6,35.7L1162.8,242.5z M1233.1,202.2c24.1-9.9,49.6-16.8,76.3-20.4l3.9,29.3c-24,3.2-47.1,9.5-68.8,18.4
		L1233.1,202.2z"/>
	<path fill-rule="evenodd" clip-rule="evenodd" fill="#4D4D4D" d="M1190.8,219l6-3.5l16.7,29l-6,3.4L1190.8,219z M1347.5,175.1h6.9
		v33.5h-6.9V175.1z M1624.9,643.6l-3.5,6l-28.9-16.7l3.4-6L1624.9,643.6z M1665.2,486v6.9h-33.4V486H1665.2z M1621.4,329.3l3.5,6
		l-29,16.7l-3.4-6L1621.4,329.3z M1505.1,215.5l6,3.5l-16.7,28.9l-6-3.4L1505.1,215.5z M1080.5,649.6l-3.5-6l29-16.7l3.4,6
		L1080.5,649.6z M1036.6,492.9V486h33.5v6.9H1036.6z M1077,335.3l3.5-6l28.9,16.7l-3.4,6L1077,335.3z"/>
	<path fill-rule="evenodd" clip-rule="evenodd" fill="#B57DFF" d="M1190.8,219l6-3.5l16.7,29l-6,3.4L1190.8,219z M1350.9,175.1v33.5
		h-3.4v-33.5H1350.9z M1080.5,649.6l-3.5-6l29-16.7l3.4,6L1080.5,649.6z M1036.6,492.9V486h33.5v6.9H1036.6z M1077,335.3l3.5-6
		l28.9,16.7l-3.4,6L1077,335.3z"/>
	<path fill-rule="evenodd" clip-rule="evenodd" fill="#4D4D4D" d="M1267.6,186.4l4-1.1l6.1,22.8l-4,1L1267.6,186.4z M1655.1,568.8
		l-1.1,4l-22.8-6.1l1.1-4L1655.1,568.8z M1654,406.1l1.1,4l-22.8,6.1l-1.1-4L1654,406.1z M1571.7,265.7l2.9,2.9l-16.7,16.7l-2.9-2.9
		L1571.7,265.7z M1430.3,185.3l4,1.1l-6.1,22.8l-4-1L1430.3,185.3z M1047.9,572.8l-1.1-4l22.8-6.1l1.1,4L1047.9,572.8z
		 M1046.8,410.1l1.1-4l22.8,6.1l-1.1,4L1046.8,410.1z M1127.2,268.6l2.9-2.9l16.7,16.7l-2.9,2.9L1127.2,268.6z"/>
	<path fill-rule="evenodd" clip-rule="evenodd" fill="#B57DFF" d="M1267.6,186.4l4-1.1l6.1,22.8l-4,1L1267.6,186.4z M1047.9,572.8
		l-1.1-4l22.8-6.1l1.1,4L1047.9,572.8z M1046.8,410.1l1.1-4l22.8,6.1l-1.1,4L1046.8,410.1z M1127.2,268.6l2.9-2.9l16.7,16.7
		l-2.9,2.9L1127.2,268.6z"/>
	<polygon fill-rule="evenodd" clip-rule="evenodd" fill="#FFFFFF" points="1305,453.7 1396.9,453.7 1432.7,457 1269.2,457 	"/>
	<polygon fill-rule="evenodd" clip-rule="evenodd" fill="#FFFFFF" points="1305,537.8 1396.9,537.8 1432.7,534.6 1269.2,534.6 	"/>
	<path fill="#FFFFFF" d="M1349.4,495.5c1.1,0,2.3,0.1,3.6,0.3c1.3,0.2,2.6,0.5,3.9,0.9c1.3,0.4,2.5,0.9,3.6,1.6
		c1.2,0.6,2.1,1.4,2.9,2.3c0.8,0.9,1.3,2,1.6,3.2c0.3,1.3,0.2,2.6-0.2,4.2c-0.4,1.5-1.1,2.9-2.1,4.1c-0.9,1.2-2,2.2-3.3,3.1
		c-1.3,0.9-2.7,1.6-4.1,2.2c-1.4,0.6-2.9,1.1-4.4,1.4c-1.5,0.4-2.9,0.6-4.3,0.8c-1.4,0.1-2.6,0.2-3.7,0.2c-1.2,0-2.3-0.1-3.7-0.2
		c-1.3-0.2-2.6-0.4-3.9-0.8c-1.3-0.4-2.6-0.8-3.7-1.4c-1.2-0.6-2.1-1.3-2.9-2.2c-0.8-0.9-1.4-1.9-1.6-3.1c-0.3-1.2-0.2-2.6,0.2-4.1
		c0.4-1.6,1.1-3,2.1-4.3c0.9-1.3,2.1-2.3,3.4-3.3s2.7-1.7,4.2-2.3c1.5-0.6,3-1.2,4.5-1.5c1.5-0.4,2.9-0.7,4.3-0.8
		C1347.1,495.6,1348.3,495.5,1349.4,495.5L1349.4,495.5z M1341.8,524c2.1,0,4.3-0.1,6.5-0.5c2.3-0.3,4.5-0.9,6.7-1.6
		c2.2-0.8,4.2-1.8,6.2-3c1.9-1.2,3.5-2.7,4.9-4.6c1.4-1.8,2.4-3.9,3.1-6.3c0.5-1.9,0.6-3.6,0.2-5.1c-0.3-1.6-0.9-3-1.8-4.2
		c-0.9-1.2-2.1-2.2-3.4-3c-1.3-0.8-2.8-1.4-4.3-1.7c1.8-0.5,3.5-1.2,5.2-1.9c1.7-0.8,3.2-1.7,4.6-2.8c1.4-1.1,2.7-2.3,3.7-3.7
		c1-1.4,1.8-3,2.2-4.7c0.6-2.4,0.7-4.5,0.2-6.2c-0.5-1.7-1.3-3.2-2.5-4.4c-1.2-1.2-2.7-2.1-4.4-2.8c-1.7-0.7-3.6-1.2-5.5-1.5
		c-2-0.3-3.9-0.5-5.9-0.5c-2,0-4,0.2-6.2,0.5c-2.1,0.3-4.3,0.8-6.4,1.6c-2.1,0.7-4.1,1.7-5.9,2.9c-1.9,1.2-3.5,2.7-4.8,4.4
		c-1.4,1.8-2.4,3.8-3,6.1c-0.5,1.8-0.6,3.3-0.3,4.7c0.2,1.4,0.7,2.6,1.5,3.7c0.8,1.1,1.8,1.9,3,2.7c1.2,0.8,2.6,1.4,4.1,1.9
		c-1.8,0.4-3.5,0.9-5.2,1.7c-1.8,0.8-3.4,1.8-4.9,3c-1.5,1.2-2.8,2.6-4,4.2c-1.1,1.6-1.9,3.4-2.5,5.3c-0.6,2.4-0.7,4.5-0.2,6.3
		c0.5,1.8,1.3,3.3,2.6,4.6c1.2,1.3,2.8,2.2,4.6,3c1.8,0.7,3.7,1.3,5.8,1.6C1337.6,523.9,1339.7,524,1341.8,524L1341.8,524z
		 M1356.5,469.1c1.4,0,2.9,0.1,4.4,0.4s3,0.6,4.5,1.2c1.4,0.5,2.7,1.3,3.7,2.2c1.1,0.9,1.8,2,2.2,3.3c0.5,1.3,0.5,2.9,0,4.7
		c-0.5,1.7-1.3,3.2-2.4,4.4c-1.1,1.2-2.5,2.3-4,3.1c-1.5,0.8-3.1,1.5-4.9,2c-1.7,0.5-3.4,0.9-5,1.1c-1.7,0.2-3.2,0.3-4.5,0.3
		c-1.4,0-2.8-0.1-4.4-0.3c-1.5-0.2-3-0.6-4.5-1.1c-1.4-0.5-2.7-1.2-3.8-2c-1.1-0.8-1.9-1.9-2.3-3.1c-0.5-1.3-0.5-2.7,0-4.4
		c0.5-1.9,1.4-3.4,2.5-4.8c1.2-1.4,2.5-2.5,4.1-3.4c1.5-0.9,3.2-1.6,4.9-2.1c1.7-0.5,3.4-0.9,5.1-1.2
		C1353.6,469.2,1355.1,469.1,1356.5,469.1L1356.5,469.1z"/>
	<path fill="#FFFFFF" d="M1281.3,560.1l-1.5-4.9h-4.3l0,0.1l2.9,7.1l-7.1,7.3l0,0.1h4.3l4.5-4.9l1.9,4.9h4.3v-0.1l-3.1-7.3l6.7-7.1
		l0-0.1h-4.3L1281.3,560.1z M1293.1,569.8h9.9l0.9-3.3h-2.9l4.7-17.5h-7.1l-1,3.6h3.3l-3.7,13.9h-3.1L1293.1,569.8z M1311.7,557.9
		c0.2-0.9,0.6-1.8,1.1-2.5c0.5-0.7,1-1.3,1.6-1.7c0.6-0.5,1.3-0.8,2-1.1c0.7-0.2,1.3-0.4,2-0.4s1.3,0.1,1.8,0.4
		c0.6,0.2,1,0.6,1.4,1.1c0.4,0.5,0.6,1,0.7,1.7c0.1,0.7,0,1.5-0.2,2.5l-0.8,3c-0.2,0.9-0.6,1.8-1.1,2.5c-0.5,0.7-1,1.3-1.6,1.8
		c-0.6,0.5-1.3,0.8-2,1.1c-0.7,0.2-1.3,0.3-2,0.3c-0.7,0-1.3-0.1-1.8-0.3c-0.6-0.2-1-0.6-1.4-1.1c-0.4-0.5-0.6-1-0.7-1.8
		c-0.1-0.7,0-1.5,0.2-2.5L1311.7,557.9z M1307,560.9c-0.3,1.2-0.5,2.3-0.4,3.3c0.1,1,0.3,1.9,0.7,2.6c0.4,0.8,0.9,1.4,1.5,1.9
		c0.6,0.5,1.4,0.9,2.2,1.1c0.8,0.2,1.7,0.4,2.6,0.4c0.9,0,1.9-0.1,2.8-0.4c0.9-0.2,1.9-0.6,2.8-1.1c0.9-0.5,1.8-1.1,2.6-1.9
		c0.8-0.7,1.5-1.6,2.1-2.6c0.6-1,1.1-2.1,1.4-3.3l0.8-3c0.3-1.2,0.5-2.3,0.4-3.3c-0.1-1-0.3-1.9-0.7-2.6c-0.4-0.7-0.9-1.3-1.5-1.9
		c-0.6-0.5-1.4-0.8-2.2-1.1c-0.8-0.2-1.7-0.4-2.6-0.4c-0.9,0-1.9,0.1-2.8,0.3c-0.9,0.2-1.9,0.6-2.8,1.1c-0.9,0.5-1.8,1.1-2.5,1.9
		c-0.8,0.7-1.5,1.6-2.1,2.6c-0.6,1-1,2.1-1.4,3.4L1307,560.9z M1332.3,557.9c0.3-0.9,0.6-1.8,1.1-2.5c0.5-0.7,1-1.3,1.6-1.7
		c0.6-0.5,1.3-0.8,2-1.1c0.7-0.2,1.3-0.4,2-0.4s1.3,0.1,1.8,0.4c0.6,0.2,1,0.6,1.4,1.1c0.3,0.5,0.6,1,0.7,1.7c0.1,0.7,0,1.5-0.2,2.5
		l-0.8,3c-0.2,0.9-0.6,1.8-1.1,2.5c-0.5,0.7-1.1,1.3-1.7,1.8c-0.6,0.5-1.3,0.8-1.9,1.1c-0.7,0.2-1.4,0.3-2,0.3
		c-0.7,0-1.3-0.1-1.8-0.3c-0.6-0.2-1-0.6-1.4-1.1c-0.4-0.5-0.6-1-0.7-1.8c-0.1-0.7,0-1.5,0.2-2.5L1332.3,557.9z M1327.7,560.9
		c-0.3,1.2-0.5,2.3-0.4,3.3c0.1,1,0.3,1.9,0.7,2.6c0.4,0.8,0.9,1.4,1.5,1.9c0.6,0.5,1.4,0.9,2.2,1.1c0.8,0.2,1.7,0.4,2.6,0.4
		c0.9,0,1.9-0.1,2.8-0.4c0.9-0.2,1.9-0.6,2.8-1.1c0.9-0.5,1.8-1.1,2.6-1.9c0.8-0.7,1.5-1.6,2.1-2.6c0.6-1,1.1-2.1,1.4-3.3l0.8-3
		c0.4-1.2,0.5-2.3,0.4-3.3c-0.1-1-0.3-1.9-0.7-2.6c-0.4-0.7-0.9-1.3-1.5-1.9c-0.7-0.5-1.4-0.8-2.2-1.1c-0.8-0.2-1.7-0.4-2.6-0.4
		c-0.9,0-1.8,0.1-2.8,0.3c-0.9,0.2-1.9,0.6-2.8,1.1c-0.9,0.5-1.8,1.1-2.5,1.9c-0.8,0.7-1.5,1.6-2.1,2.6c-0.6,1-1.1,2.1-1.4,3.4
		L1327.7,560.9z M1353,557.9c0.2-0.9,0.6-1.8,1.1-2.5c0.5-0.7,1.1-1.3,1.6-1.7c0.6-0.5,1.3-0.8,2-1.1c0.7-0.2,1.4-0.4,2-0.4
		c0.7,0,1.3,0.1,1.8,0.4c0.6,0.2,1,0.6,1.4,1.1c0.4,0.5,0.6,1,0.7,1.7c0.1,0.7,0.1,1.5-0.2,2.5l-0.8,3c-0.3,0.9-0.6,1.8-1.1,2.5
		c-0.5,0.7-1,1.3-1.6,1.8c-0.6,0.5-1.3,0.8-2,1.1c-0.7,0.2-1.4,0.3-2,0.3c-0.6,0-1.3-0.1-1.8-0.3c-0.5-0.2-1-0.6-1.4-1.1
		c-0.4-0.5-0.6-1-0.7-1.8c-0.1-0.7,0-1.5,0.2-2.5L1353,557.9z M1348.3,560.9c-0.3,1.2-0.5,2.3-0.4,3.3c0.1,1,0.3,1.9,0.7,2.6
		c0.4,0.8,0.9,1.4,1.5,1.9c0.7,0.5,1.4,0.9,2.2,1.1c0.8,0.2,1.7,0.4,2.6,0.4c0.9,0,1.8-0.1,2.8-0.4c0.9-0.2,1.9-0.6,2.8-1.1
		c0.9-0.5,1.8-1.1,2.5-1.9c0.8-0.7,1.5-1.6,2.1-2.6c0.6-1,1.1-2.1,1.4-3.3l0.8-3c0.3-1.2,0.4-2.3,0.4-3.3c-0.1-1-0.3-1.9-0.7-2.6
		c-0.4-0.7-0.9-1.3-1.5-1.9c-0.6-0.5-1.4-0.8-2.2-1.1c-0.8-0.2-1.7-0.4-2.6-0.4c-0.9,0-1.9,0.1-2.8,0.3c-0.9,0.2-1.9,0.6-2.8,1.1
		c-0.9,0.5-1.8,1.1-2.6,1.9c-0.8,0.7-1.5,1.6-2.1,2.6c-0.6,1-1.1,2.1-1.4,3.4L1348.3,560.9z M1370.7,555.1l-3.9,14.6h3.6l2.1-7.7
		c0.2-0.7,0.4-1.2,0.8-1.7c0.3-0.5,0.7-0.8,1.1-1.1c0.4-0.3,0.9-0.5,1.4-0.7c0.5-0.1,0.9-0.2,1.4-0.2c0.4,0,0.7,0,1,0.1
		c0.3,0.1,0.5,0.2,0.7,0.3c0.2,0.1,0.4,0.3,0.6,0.5l2.5-3.2c-0.2-0.3-0.5-0.5-0.8-0.7c-0.3-0.2-0.7-0.3-1.2-0.5
		c-0.5-0.1-0.9-0.2-1.4-0.2c-0.5,0-1,0-1.5,0.1c-0.5,0.1-1.1,0.3-1.6,0.6c-0.5,0.3-1.1,0.7-1.6,1.3l0.2-1.7H1370.7z M1388.6,566.6
		c-0.6,0-1.2-0.1-1.6-0.3c-0.4-0.2-0.8-0.5-1-0.9c-0.3-0.4-0.4-0.8-0.5-1.3c-0.1-0.5,0-1,0.1-1.6c0.2-0.6,0.4-1.1,0.7-1.6
		c0.3-0.5,0.7-0.9,1.2-1.3c0.5-0.4,1-0.7,1.5-0.9c0.6-0.2,1.2-0.3,1.9-0.3c0.6,0,1.2,0.1,1.6,0.3s0.8,0.5,1.1,0.9
		c0.3,0.4,0.4,0.8,0.5,1.3c0,0.5,0,1-0.2,1.6c-0.1,0.6-0.4,1.1-0.7,1.6c-0.3,0.5-0.7,0.9-1.2,1.3s-1,0.7-1.5,0.9
		C1389.9,566.5,1389.3,566.6,1388.6,566.6L1388.6,566.6z M1381.7,575.9l2.1-7.8c0.2,0.4,0.4,0.7,0.7,1c0.3,0.3,0.7,0.5,1.1,0.6
		c0.4,0.2,0.8,0.3,1.3,0.3c0.4,0.1,0.8,0.1,1.2,0.1c1.2,0,2.3-0.2,3.3-0.6c1-0.4,2-0.9,2.8-1.6c0.8-0.7,1.5-1.5,2.1-2.4
		c0.6-0.9,1-1.9,1.3-3c0.3-1.1,0.3-2.1,0.2-3c-0.1-0.9-0.4-1.7-0.9-2.4c-0.5-0.7-1.1-1.2-1.9-1.6c-0.8-0.4-1.8-0.6-2.9-0.6
		c-0.6,0-1.2,0.1-1.8,0.2s-1.3,0.4-1.9,0.8c-0.6,0.3-1.2,0.8-1.7,1.3l0.3-2h-3.4l-5.6,20.7H1381.7z M1411.6,569.8l2.1-7.8
		c0.1-0.5,0.3-0.9,0.6-1.4c0.2-0.5,0.6-0.8,0.9-1.2c0.3-0.4,0.8-0.6,1.2-0.8c0.5-0.2,0.9-0.3,1.4-0.3s0.9,0.1,1.2,0.3
		c0.3,0.2,0.5,0.4,0.7,0.8c0.1,0.3,0.2,0.7,0.2,1.1s-0.1,0.9-0.2,1.4l-2.1,7.9h3.6l2.1-7.9c0.4-1.5,0.5-2.7,0.3-3.7
		c-0.2-1-0.7-1.8-1.4-2.3c-0.8-0.6-1.9-0.8-3.3-0.8c-0.6,0-1.3,0.1-1.9,0.2c-0.6,0.1-1.2,0.4-1.9,0.8c-0.6,0.4-1.2,0.9-1.9,1.6
		c-0.1-0.7-0.3-1.2-0.7-1.6c-0.4-0.4-0.8-0.7-1.3-0.9c-0.5-0.2-1.1-0.3-1.6-0.3c-0.5,0-0.9,0.1-1.5,0.2c-0.6,0.1-1.1,0.3-1.6,0.6
		c-0.5,0.3-0.9,0.7-1.3,1.2l0.2-1.8h-3.4l-3.9,14.7h3.6l2.1-7.8c0.1-0.5,0.3-0.9,0.6-1.4c0.2-0.4,0.6-0.8,0.9-1.2
		c0.4-0.3,0.8-0.6,1.2-0.8c0.4-0.2,0.9-0.3,1.4-0.3c0.5,0,0.9,0.1,1.2,0.3c0.3,0.2,0.6,0.5,0.7,0.8c0.1,0.3,0.2,0.7,0.2,1.2
		c0,0.5-0.1,0.9-0.2,1.4l-2.1,7.8H1411.6z"/>
</g>
<g>
	<g>
		<path fill-rule="evenodd" clip-rule="evenodd" fill="#0A0A0A" d="M875.1,109.1c22.5,0,40.7,18.2,40.7,40.7
			c0,22.5-18.2,40.7-40.7,40.7c-22.5,0-40.7-18.2-40.7-40.7C834.4,127.3,852.6,109.1,875.1,109.1L875.1,109.1z"/>
		<path fill-rule="evenodd" clip-rule="evenodd" fill="#FFCC00" d="M861.5,130.1h24.1v3.6c1.2,0.2,2.5,0.7,3.8,1.6
			c2.7,2,3.8,5.2,4.3,8.5c0.4,2.1,0.7,4.6,3.4,8.4c5.4,7.4-0.3,19.9-6.3,16c-2.2-1.5-2.7-5.5-3.1-9.5c-0.4-3.5-0.8-6.9-2.1-8.1v19
			h-24.1V130.1z M885.6,135.3v13.2c2.8,0.9,3.3,5.3,3.8,9.8c0.4,3.6,0.8,7.2,2.3,8.3c4.1,2.8,8.4-7.6,4.1-13.6
			c-2.9-4-3.4-6.7-3.7-9.1c-0.4-2.8-1.3-5.6-3.7-7.4C887.5,135.9,886.5,135.6,885.6,135.3L885.6,135.3z M864.8,133.9h17.5v13.5
			h-17.5V133.9z"/>
	</g>
	<g>
		<path fill-rule="evenodd" clip-rule="evenodd" fill="#FFCC00" d="M875,210.4c77.2,0,147.1,31.3,197.7,81.9l-7.2,7.2
			c-48.8-48.8-116.1-78.9-190.5-78.9s-141.8,30.1-190.5,78.9l-7.2-7.2C727.9,241.7,797.8,210.4,875,210.4L875,210.4z"/>
		<path fill-rule="evenodd" clip-rule="evenodd" fill="#FFCC00" d="M876.8,224.7c34.7,0.2,67.8,7.1,98.1,19.5l-10.4,25.1
			c-27.1-11-56.7-17.2-87.7-17.4V224.7z M978.2,245.5c31.8,13.4,60.4,32.9,84.4,56.9l-19.2,19.2c-21.5-21.5-47.1-39-75.6-51
			L978.2,245.5z M873.2,251.8c-31,0.2-60.6,6.4-87.7,17.4l-10.4-25.1c30.3-12.4,63.4-19.2,98.1-19.5V251.8z M782.2,270.6
			c-28.5,12-54.1,29.5-75.6,51l-19.2-19.2c24-24,52.6-43.4,84.4-56.9L782.2,270.6z"/>
	</g>
	<g>
		<path fill="#FFFFFF" d="M675.8,242.1h-11.7l1.3-4.7h11.2l1-3.6h-11.2l1.3-4.8h11.7l1-3.8h-15.5c-0.9,3.5-1.9,6.9-2.8,10.4
			c-0.9,3.5-1.9,6.9-2.8,10.4h15.5L675.8,242.1z"/>
		<polygon fill="#FFFFFF" points="1075.6,245.9 1077.7,238.3 1088.1,238.3 1089.1,234.6 1078.7,234.6 1080.2,229 1091.2,229 
			1092.2,225.2 1077.3,225.2 1071.7,245.9 		"/>
	</g>
</g>
<g>
	<g>
		<path fill-rule="evenodd" clip-rule="evenodd" fill="#0A0A0A" d="M875.1,792.2c22.5,0,40.7,18.2,40.7,40.7
			c0,22.5-18.2,40.7-40.7,40.7c-22.5,0-40.7-18.2-40.7-40.7C834.4,810.4,852.6,792.2,875.1,792.2L875.1,792.2z"/>
		<polygon fill="#99FF00" points="881.8,836.6 871.7,817.2 867,817.2 858.6,848.4 864.5,848.4 870.1,827.4 880.8,848.4 880.8,848.4 
			884.5,848.4 892.9,817.2 887,817.2 		"/>
	</g>
	<g>
		<path fill-rule="evenodd" clip-rule="evenodd" fill="#0A0A0A" d="M876.8,755.3c34.7-0.2,67.8-7.1,98.1-19.4l-10.4-25.1
			c-27.1,11-56.7,17.2-87.7,17.4V755.3z M978.2,734.5c31.8-13.4,60.4-32.9,84.4-56.9l-19.2-19.2c-21.5,21.5-47.1,39-75.6,51
			L978.2,734.5z M873.2,728.2c-31-0.2-60.6-6.4-87.7-17.4l-10.4,25.1c30.3,12.3,63.4,19.2,98.1,19.4V728.2z M782.2,709.4
			c-28.5-12-54.1-29.5-75.6-51l-19.2,19.2c24,24,52.6,43.5,84.4,56.9L782.2,709.4z"/>
		<path fill-rule="evenodd" clip-rule="evenodd" fill="#0A0A0A" d="M875,769.7c77.2,0,147.1-31.3,197.7-81.9l-7.2-7.2
			c-48.8,48.8-116.1,78.9-190.5,78.9s-141.8-30.1-190.5-78.9l-7.2,7.2C727.9,738.3,797.8,769.7,875,769.7L875,769.7z"/>
		<path fill="#4D4D4D" d="M1011.2,695.5l-1.9,9.2l0.8,1.9l4.8-3.2l0.7,2l1.7-1.1l-0.7-2l1-0.7l-0.6-1.9l-1,0.7l-2.2-6.7
			L1011.2,695.5z M1011.2,703.5l1.5-6.9l1.6,4.9L1011.2,703.5z"/>
		<path fill="#4D4D4D" d="M921.3,738.3c0.5-0.1,0.8-0.1,1.2-0.1c0.3,0,0.5,0.1,0.7,0.2c0.1,0.1,0.2,0.2,0.3,0.4c0,0.2,0.1,0.3,0,0.5
			c0,0.2-0.1,0.5-0.2,0.7c-0.1,0.2-0.2,0.4-0.4,0.5c-0.2,0.2-0.3,0.3-0.6,0.4c-0.2,0.1-0.4,0.2-0.7,0.3c-0.2,0.1-0.4,0.1-0.6,0.1
			c-0.2,0-0.4,0.1-0.6,0.1c-0.2,0-0.4,0-0.6,0c-0.2,0-0.4-0.1-0.5-0.2c-0.2-0.1-0.3-0.2-0.4-0.4c-0.1-0.1-0.1-0.3-0.1-0.6l-2,0.3
			c0,0.5,0,0.9,0.2,1.3c0.1,0.3,0.3,0.6,0.6,0.8c0.3,0.2,0.6,0.4,0.9,0.5c0.4,0.1,0.7,0.1,1.2,0.1c0.4,0,0.8,0,1.2-0.1
			c0.4-0.1,0.8-0.2,1.3-0.3c0.4-0.2,0.8-0.4,1.3-0.6c0.4-0.2,0.7-0.5,1.1-0.8c0.3-0.4,0.6-0.7,0.8-1.2c0.2-0.4,0.4-0.9,0.4-1.4
			c0-0.2,0-0.5-0.1-0.7c-0.1-0.2-0.1-0.4-0.3-0.6c-0.1-0.2-0.3-0.3-0.5-0.5c-0.2-0.1-0.4-0.2-0.7-0.2c0.2-0.1,0.5-0.3,0.7-0.5
			c0.2-0.2,0.3-0.4,0.5-0.6c0.1-0.2,0.2-0.5,0.4-0.7c0.1-0.2,0.1-0.5,0.1-0.7c0-0.5,0-0.9-0.1-1.2c-0.1-0.4-0.3-0.6-0.6-0.8
			c-0.3-0.2-0.6-0.4-0.9-0.5c-0.4-0.1-0.7-0.2-1.1-0.2c-0.4,0-0.8,0-1.2,0.1c-0.4,0.1-0.8,0.2-1.2,0.3c-0.4,0.1-0.8,0.4-1.2,0.6
			c-0.4,0.2-0.7,0.5-1,0.8c-0.3,0.3-0.6,0.7-0.7,1c-0.2,0.4-0.3,0.8-0.3,1.3l2-0.4c0-0.2,0.1-0.5,0.2-0.7c0.2-0.2,0.4-0.4,0.6-0.5
			c0.2-0.2,0.5-0.3,0.7-0.4c0.2-0.1,0.5-0.1,0.7-0.2c0.4-0.1,0.8-0.1,1.1,0c0.3,0,0.5,0.1,0.6,0.2c0.2,0.1,0.3,0.3,0.3,0.4
			c0.1,0.2,0.1,0.3,0.1,0.5c0,0.2-0.1,0.5-0.2,0.7c-0.1,0.2-0.3,0.4-0.6,0.5c-0.2,0.1-0.5,0.2-0.7,0.4c-0.2,0.1-0.5,0.2-0.8,0.2
			l-1.5,0.3l-0.1,1.7L921.3,738.3z"/>
		<path fill-rule="evenodd" clip-rule="evenodd" fill="#99FF00" d="M873.2,728.2c-31-0.2-60.6-6.4-87.7-17.4l-10.4,25.1
			c30.3,12.3,63.4,19.2,98.1,19.4V728.2z M782.2,709.4c-28.5-12-54.1-29.5-75.6-51l-19.2,19.2c24,24,52.6,43.5,84.4,56.9
			L782.2,709.4z"/>
		<path fill="#0A0A0A" d="M822.1,734c0.1-0.2,0.3-0.4,0.5-0.6c0.2-0.1,0.5-0.2,0.7-0.3c0.2-0.1,0.5-0.1,0.8-0.1c0.3,0,0.6,0,0.8,0.1
			c0.4,0.1,0.7,0.2,0.9,0.3c0.2,0.1,0.5,0.2,0.6,0.5c0.2,0.2,0.2,0.3,0.3,0.6c0,0.2-0.1,0.5-0.2,0.7c-0.1,0.2-0.3,0.4-0.5,0.6
			c-0.2,0.1-0.4,0.2-0.6,0.3c-0.2,0-0.5,0.1-0.7,0.1c-0.2,0-0.5,0-0.7,0c-0.2,0-0.4-0.1-0.6-0.1c-0.4-0.1-0.8-0.1-1.3-0.2
			c-0.5,0-0.9,0-1.3,0c-0.4,0.1-0.8,0.2-1.3,0.4c-0.4,0.2-0.7,0.4-1.1,0.7c-0.3,0.3-0.6,0.7-0.8,1.2c-0.2,0.4-0.5,0.9-0.7,1.3
			c-0.2,0.5-0.5,0.9-0.7,1.3l8.5,1.8l0.9-1.7l-6.5-1.4l0.4-0.9c0.1-0.2,0.3-0.4,0.5-0.5c0.2-0.1,0.4-0.2,0.6-0.3
			c0.2,0,0.4-0.1,0.7-0.1c0.2,0,0.5,0,0.7,0c0.2,0,0.4,0,0.6,0.1c0.4,0.1,0.9,0.2,1.3,0.2c0.4,0,0.9,0,1.3,0
			c0.4-0.1,0.8-0.2,1.2-0.4c0.4-0.2,0.7-0.4,1.1-0.7c0.3-0.3,0.6-0.7,0.9-1.2c0.2-0.5,0.4-0.9,0.4-1.3c0-0.4,0-0.7-0.2-1.1
			c-0.2-0.3-0.4-0.6-0.7-0.8c-0.3-0.2-0.6-0.4-1-0.6c-0.4-0.1-0.8-0.3-1.2-0.3c-0.4-0.1-0.8-0.1-1.2-0.1c-0.4,0-0.8,0-1.3,0.1
			c-0.5,0.1-0.8,0.2-1.2,0.4c-0.4,0.2-0.8,0.4-1.1,0.7c-0.3,0.3-0.6,0.7-0.8,1.1L822.1,734z"/>
		<polygon fill="#0A0A0A" points="726.5,700.1 730.7,703 732.1,701.9 730.8,701 738,694.9 734.9,692.8 733.5,694 734.9,695 
			729.2,699.9 727.9,699 		"/>
	</g>
</g>
<g>
	<g>
		<path fill-rule="evenodd" clip-rule="evenodd" fill="#050505" d="M706.7,792.5c20.5,0,37.1,16.6,37.1,37
			c0,20.5-16.6,37.1-37.1,37.1c-20.4,0-37-16.6-37-37.1C669.7,809.1,686.2,792.5,706.7,792.5L706.7,792.5z"/>
		<polygon fill-rule="evenodd" clip-rule="evenodd" fill="#99FF00" points="705.5,821.6 729.2,821.6 729.2,837.4 705.5,837.4 
			705.5,847 684.3,829.5 705.5,812 		"/>
	</g>
	<g>
		<path fill-rule="evenodd" clip-rule="evenodd" fill="#050505" d="M1043.3,792.5c20.4,0,37,16.6,37,37c0,20.5-16.6,37.1-37,37.1
			c-20.5,0-37.1-16.6-37.1-37.1C1006.3,809.1,1022.8,792.5,1043.3,792.5L1043.3,792.5z"/>
		<polygon fill-rule="evenodd" clip-rule="evenodd" fill="#99FF00" points="1044.5,821.6 1020.8,821.6 1020.8,837.4 1044.5,837.4 
			1044.5,847 1065.8,829.5 1044.5,812 		"/>
	</g>
</g>
</svg>
