<?xml version="1.0" encoding="UTF-8"?>
<!DOCTYPE svg PUBLIC "-//W3C//DTD SVG 1.1//EN" "http://www.w3.org/Graphics/SVG/1.1/DTD/svg11.dtd">
<!-- Creator: CorelDRAW X7 -->
<svg xmlns="http://www.w3.org/2000/svg" xml:space="preserve" width="618mm" height="346mm" version="1.1" style="shape-rendering:geometricPrecision; text-rendering:geometricPrecision; image-rendering:optimizeQuality; fill-rule:evenodd; clip-rule:evenodd"
viewBox="0 0 61800 34600"
 xmlns:xlink="http://www.w3.org/1999/xlink">
 <defs>
  <style type="text/css">
   <![CDATA[
    .fil3 {fill:#FEFEFE}
    .fil4 {fill:#FFD326}
    .fil12 {fill:#F4813D}
    .fil13 {fill:#E7A136}
    .fil9 {fill:#636563}
    .fil0 {fill:#404342}
    .fil1 {fill:#444645}
    .fil2 {fill:#70706F}
    .fil8 {fill:#805CA5}
    .fil14 {fill:#00B8EA}
    .fil6 {fill:#3E2C54}
    .fil11 {fill:#1F5C91}
    .fil10 {fill:#273A50}
    .fil7 {fill:#FEFEFE;fill-rule:nonzero}
    .fil5 {fill:#9ACA48;fill-rule:nonzero}
   ]]>
  </style>
 </defs>
 <g id="Layer_x0020_1">
  <metadata id="CorelCorpID_0Corel-Layer"/>
  <g id="_1250707362736">
   <g>
    <g>
     <polygon class="fil0" points="31,24 61767,24 61767,34596 31,34596 "/>
     <path class="fil1" d="M61767 9157l0 16306c-2815,4851 -8065,8113 -14078,8113 -2621,0 -5098,-621 -7291,-1722l-19166 0c-2194,1101 -4669,1722 -7292,1722 -5893,0 -11056,-3135 -13909,-7828l0 -16876c2853,-4694 8016,-7828 13909,-7828 2623,0 5098,621 7292,1723l19166 0c2193,-1102 4670,-1723 7291,-1723 6013,0 11263,3262 14078,8113l0 0z"/>
    </g>
    <g>
     <path class="fil2" d="M30878 7472c2724,0 5191,1105 6976,2890l-254 255c-1720,-1722 -4097,-2785 -6722,-2785 -2625,0 -5001,1063 -6721,2785l-254 -255c1784,-1785 4251,-2890 6975,-2890l0 0z"/>
     <path class="fil2" d="M30878 27203c2724,0 5191,-1105 6976,-2890l-254 -254c-1720,1720 -4097,2783 -6722,2783 -2625,0 -5001,-1063 -6721,-2783l-254 254c1784,1785 4251,2890 6975,2890l0 0z"/>
     <g>
      <path class="fil3" d="M23850 8592l-411 0 44 -166 396 0 35 -128 -396 0 45 -169 412 0 35 -135 -548 0c-32,122 -65,245 -99,367 -32,122 -65,244 -97,366l548 0 36 -135z"/>
      <polygon class="fil3" points="37955,8727 38028,8457 38395,8457 38429,8329 38063,8329 38116,8130 38503,8130 38539,7997 38013,7997 37818,8727 "/>
      <g>
       <g>
        <path class="fil0" d="M30882 3898c792,0 1436,644 1436,1436 0,794 -644,1438 -1436,1438 -794,0 -1438,-644 -1438,-1438 0,-792 644,-1436 1438,-1436l0 0z"/>
        <path class="fil4" d="M30519 4775l616 0 0 477 -616 0 0 -477zm733 51l0 465c99,31 116,188 135,346 13,127 28,256 82,293 146,98 295,-270 143,-481 -103,-142 -118,-237 -132,-319 -14,-98 -47,-198 -131,-261 -30,-23 -65,-36 -97,-43l0 0zm-851 -185l851 0 0 125c43,8 89,24 133,56 97,72 135,184 153,299 13,75 26,163 121,295 189,260 -11,704 -222,563 -78,-53 -94,-194 -110,-336 -13,-122 -27,-244 -75,-285l0 672 -851 0 0 -1389z"/>
       </g>
       <g>
        <path class="fil0" d="M30934 27997c793,0 1436,643 1436,1437 0,792 -643,1436 -1436,1436 -793,0 -1437,-644 -1437,-1436 0,-794 644,-1437 1437,-1437l0 0z"/>
        <path class="fil5" d="M31332 29653l376 57c-73,203 -184,359 -331,467 -146,108 -319,161 -516,161 -222,0 -395,-67 -520,-201 -125,-134 -188,-329 -188,-584 0,-207 42,-396 126,-568 84,-172 200,-304 349,-395 148,-91 310,-136 485,-136 197,0 356,53 477,158 122,106 193,249 214,432l-358 34c-20,-106 -58,-182 -114,-230 -56,-48 -131,-72 -225,-72 -103,0 -199,32 -289,95 -89,63 -160,161 -213,296 -54,133 -81,267 -81,401 0,146 35,259 104,339 70,79 157,119 260,119 96,0 184,-31 264,-94 81,-63 141,-156 180,-279z"/>
       </g>
       <g>
        <g>
         <g>
          <g>
           <path class="fil0" d="M30878 9484c4336,0 7853,3517 7853,7853 0,4337 -3517,7853 -7853,7853 -4336,0 -7853,-3516 -7853,-7853 0,-4336 3516,-7853 7853,-7853l0 0z"/>
           <g>
            <g>
             <g>
              <g>
               <path class="fil6" d="M47668 6102c6205,0 11236,5031 11236,11235 0,6205 -5031,11235 -11236,11235 -6205,0 -11235,-5030 -11235,-11235 0,-6204 5030,-11235 11235,-11235l0 0z"/>
               <path class="fil3" d="M47668 11108c3430,0 6209,2779 6209,6208 0,3430 -2779,6210 -6209,6210 -3429,0 -6210,-2780 -6210,-6210 0,-3429 2781,-6208 6210,-6208l0 0zm0 -195c3537,0 6404,2867 6404,6403 0,3538 -2867,6405 -6404,6405 -3537,0 -6404,-2867 -6404,-6405 0,-3536 2867,-6403 6404,-6403l0 0z"/>
               <polygon class="fil3" points="46048,16056 49289,16056 50553,16172 44783,16172 "/>
               <polygon class="fil3" points="46048,19024 49289,19024 50553,18909 44783,18909 "/>
               <path class="fil7" d="M46662 19542l150 0 -24 100c55,-74 114,-111 178,-111 23,0 47,4 74,14l-61 115c-14,-4 -29,-7 -45,-7 -25,0 -48,6 -69,18 -33,19 -58,43 -76,73 -17,30 -34,81 -51,154l-40 162 -158 0 122 -518z"/>
               <path id="1" class="fil7" d="M47104 19542l151 0 -13 53c33,-25 63,-41 90,-51 27,-9 55,-13 84,-13 60,0 107,18 144,55 36,37 55,93 55,167 0,95 -33,174 -97,238 -54,53 -117,80 -189,80 -75,0 -132,-28 -171,-83l-64 269 -159 0 169 -715zm96 297c0,41 11,72 33,94 21,22 46,33 75,33 22,0 45,-7 67,-21 22,-14 42,-40 59,-78 18,-38 27,-77 27,-117 0,-39 -10,-68 -30,-89 -21,-20 -46,-31 -76,-31 -24,0 -47,7 -69,21 -22,14 -42,39 -59,76 -18,36 -27,74 -27,112z"/>
               <path id="2" class="fil7" d="M47785 19542l151 0 -16 63c59,-49 121,-74 185,-74 86,0 135,30 149,91 21,-27 51,-49 89,-66 38,-17 77,-25 116,-25 46,0 83,10 110,32 27,21 40,51 40,89 0,18 -5,48 -15,92l-75 316 -158 0 74 -317c10,-39 15,-62 15,-67 0,-15 -6,-26 -16,-34 -10,-8 -25,-12 -43,-12 -38,0 -73,18 -104,52 -25,27 -45,74 -61,142l-56 236 -158 0 73 -313c9,-36 13,-59 13,-70 0,-14 -5,-26 -16,-34 -12,-8 -26,-13 -43,-13 -23,0 -47,8 -72,24 -24,16 -44,39 -58,69 -9,18 -19,51 -31,99l-57 238 -159 0 123 -518z"/>
              </g>
              <g>
               <path class="fil8" d="M43510 7183c850,-348 1751,-594 2691,-720l137 1033c-848,114 -1662,335 -2427,650l-401 -963zm-2479 1422c736,-562 1545,-1032 2410,-1394l399 963c-780,328 -1510,752 -2174,1259l-635 -828zm-2029 2015c571,-737 1233,-1399 1970,-1969l634 827c-665,515 -1261,1113 -1776,1777l-828 -635zm-1439 2470c361,-866 832,-1675 1394,-2410l827 634c-506,665 -931,1394 -1258,2175l-963 -399zm-749 2761c126,-941 371,-1843 720,-2691l963 399c-315,765 -535,1579 -649,2427l-1034 -135zm-9 2858c-59,-456 -88,-920 -88,-1393 0,-471 29,-936 87,-1391l1034 136c-52,411 -79,830 -79,1255 0,426 26,846 79,1257l-1033 136zm729 2765c-349,-849 -594,-1751 -720,-2691l1034 -136c114,849 334,1662 649,2428l-963 399zm695 1398c-252,-426 -475,-869 -666,-1328l963 -400c174,415 375,816 601,1200l-898 528zm19545 -1328c-193,459 -416,902 -667,1328l-898 -528c226,-384 428,-785 602,-1199l963 399zm748 -2761c-126,941 -372,1842 -720,2691l-963 -399c314,-766 535,-1579 650,-2428l1033 136zm10 -2858c58,455 88,920 88,1391 0,473 -30,937 -88,1393l-1034 -136c52,-411 79,-831 79,-1257 0,-425 -27,-844 -79,-1255l1034 -136zm-730 -2765c348,848 594,1750 720,2691l-1033 135c-114,-848 -336,-1662 -650,-2427l963 -399zm-1422 -2480c560,735 1032,1544 1394,2410l-963 400c-327,-782 -752,-1511 -1258,-2176l827 -634zm-2015 -2029c737,570 1399,1232 1969,1969l-827 635c-515,-664 -1113,-1262 -1777,-1777l635 -827zm-2471 -1440c866,362 1676,832 2411,1394l-634 828c-664,-507 -1394,-931 -2176,-1259l399 -963zm-2760 -748c940,126 1843,370 2691,720l-399 963c-765,-315 -1579,-536 -2427,-650l135 -1033zm-1466 -98c471,0 937,30 1392,88l-135 1034c-411,-52 -831,-79 -1257,-79 -425,0 -845,27 -1256,79l-136 -1034c456,-58 920,-88 1392,-88l0 0z"/>
               <path class="fil9" d="M38005 11878l122 -211 1021 591 -121 211 -1022 -591zm-1425 5560l0 -243 1180 0 0 243 -1180 0zm1547 5528l-122 -211 1022 -590 121 211 -1021 590zm14980 -15313l211 123 -591 1021 -210 -121 590 -1023zm4103 4014l122 211 -1022 591 -121 -211 1021 -591zm1545 5528l0 243 -1179 0 0 -243 1179 0zm-1423 5560l-122 211 -1021 -590 121 -211 1022 590zm-9785 -16527l243 0 0 1181 -243 0 0 -1181zm-5528 1548l211 -123 590 1023 -211 121 -590 -1021z"/>
              </g>
             </g>
             <path class="fil9" d="M47668 6102c6194,0 11215,5021 11215,11214 0,2087 -571,4039 -1562,5712l-237 -139c968,-1633 1524,-3537 1524,-5573 0,-6041 -4898,-10939 -10940,-10939 -6042,0 -10940,4898 -10940,10939 0,2036 557,3940 1525,5573l-237 139c-992,-1673 -1562,-3625 -1562,-5712 0,-6193 5020,-11214 11214,-11214l0 0z"/>
            </g>
            <path class="fil9" d="M39776 9528l103 -103 589 589 -103 103 -589 -589zm-2837 4989l38 -141 804 216 -37 141 -805 -216zm38 5740l-38 -140 805 -217 37 141 -804 216zm13491 -13669l140 38 -216 804 -140 -37 216 -805zm4990 2837l102 103 -589 589 -104 -103 591 -589zm2901 4951l38 141 -805 216 -38 -141 805 -216zm38 5741l-38 140 -805 -216 38 -141 805 217zm-13669 -13491l140 -38 217 805 -141 37 -216 -804z"/>
           </g>
          </g>
          <g>
           <path class="fil10" d="M14088 6161c6172,0 11177,5004 11177,11176 0,6173 -5005,11177 -11177,11177 -6172,0 -11177,-5004 -11177,-11177 0,-6172 5005,-11176 11177,-11176l0 0z"/>
           <path class="fil3" d="M14088 11128c3429,0 6210,2780 6210,6209 0,3429 -2781,6210 -6210,6210 -3430,0 -6209,-2781 -6209,-6210 0,-3429 2779,-6209 6209,-6209l0 0zm0 -194c3536,0 6403,2867 6403,6403 0,3538 -2867,6405 -6403,6405 -3537,0 -6404,-2867 -6404,-6405 0,-3536 2867,-6403 6404,-6403l0 0z"/>
           <polygon class="fil3" points="12467,16077 15709,16077 16974,16191 11203,16191 "/>
           <polygon class="fil3" points="12467,19045 15709,19045 16974,18930 11203,18930 "/>
           <path class="fil3" d="M14887 19439l-196 732 127 0 70 -263c6,-20 14,-38 25,-56 10,-16 23,-31 38,-44 15,-12 31,-24 48,-31 18,-6 36,-10 55,-11 23,0 42,5 56,15 15,8 25,23 30,43 5,20 4,44 -5,76l-73 271 129 0 73 -272c13,-50 17,-95 12,-132 -5,-38 -20,-67 -46,-88 -26,-19 -63,-30 -111,-30 -20,0 -39,1 -59,6 -20,5 -41,13 -61,24 -21,12 -42,28 -61,46l76 -286 -127 0zm-196 -68l-586 886 132 0 587 -886 -133 0zm-975 800l75 -275c3,-18 11,-34 21,-50 8,-15 19,-28 32,-41 13,-11 27,-21 43,-27 16,-7 32,-11 49,-11 18,0 31,4 42,10 10,7 17,16 22,28 5,12 8,25 8,40 -1,15 -4,31 -9,48l-74 278 127 0 76 -278c13,-52 17,-96 11,-132 -6,-37 -24,-64 -51,-84 -27,-19 -65,-28 -114,-28 -22,0 -44,2 -66,7 -22,6 -43,16 -66,30 -22,13 -44,32 -65,56 -4,-23 -12,-42 -24,-56 -12,-14 -28,-24 -45,-31 -19,-5 -37,-9 -58,-9 -16,0 -35,3 -53,8 -19,3 -37,11 -55,22 -17,10 -33,24 -48,42l8 -63 -118 0 -138 516 127 0 74 -275c5,-18 11,-34 21,-50 9,-16 20,-29 32,-41 13,-12 28,-22 42,-29 16,-6 32,-10 50,-10 17,0 32,4 43,10 11,7 20,17 25,29 6,12 8,25 10,41 0,16 -3,32 -8,50l-74 275 128 0zm-816 -731l-196 731 127 0 63 -233 140 233 153 0 2 -9 -168 -264 273 -235 1 -7 -151 0 -230 206 113 -422 -127 0z"/>
          </g>
         </g>
         <g>
          <path class="fil11" d="M9931 7203c848,-349 1751,-593 2690,-719l136 1033c-848,114 -1662,335 -2427,649l-399 -963zm-2480 1423c735,-562 1545,-1032 2411,-1395l398 963c-781,329 -1511,752 -2175,1260l-634 -828zm-2028 2015c569,-737 1232,-1399 1968,-1969l635 827c-665,514 -1262,1111 -1777,1776l-826 -634zm-1441 2470c363,-866 833,-1675 1395,-2410l826 634c-506,665 -931,1394 -1258,2175l-963 -399zm-748 2759c126,-939 371,-1841 719,-2690l964 399c-314,766 -535,1580 -649,2427l-1034 -136zm-10 2860c-58,-456 -88,-921 -88,-1393 0,-471 30,-936 88,-1393l1033 137c-52,412 -79,830 -79,1256 0,426 27,845 79,1257l-1033 136zm729 2765c-348,-849 -592,-1751 -719,-2691l1034 -136c114,847 335,1662 649,2428l-964 399zm696 1397c-251,-425 -474,-868 -667,-1328l963 -399c174,415 375,815 603,1199l-899 528zm19545 -1328c-192,460 -416,903 -666,1328l-899 -528c226,-384 428,-784 601,-1199l964 399zm747 -2760c-126,940 -370,1842 -718,2691l-965 -399c315,-766 536,-1579 650,-2428l1033 136zm11 -2860c57,457 88,922 88,1393 0,472 -30,937 -88,1393l-1034 -136c53,-412 79,-831 79,-1257 0,-426 -26,-844 -79,-1255l1034 -138zm-729 -2764c348,849 592,1751 718,2690l-1033 136c-114,-847 -335,-1661 -648,-2427l963 -399zm-1424 -2479c562,735 1032,1544 1395,2410l-963 399c-328,-781 -753,-1510 -1259,-2175l827 -634zm-2015 -2029c737,570 1399,1232 1969,1969l-827 634c-514,-665 -1111,-1261 -1775,-1776l633 -827zm-2469 -1441c865,363 1674,833 2410,1395l-635 828c-664,-508 -1394,-931 -2174,-1260l399 -963zm-2760 -747c940,126 1841,370 2690,719l-398 963c-767,-314 -1581,-535 -2428,-649l136 -1033zm-1467 -99c472,0 936,30 1393,88l-137 1033c-411,-52 -830,-77 -1256,-77 -426,0 -844,25 -1257,77l-136 -1033c456,-58 921,-88 1393,-88l0 0z"/>
          <g>
           <path class="fil9" d="M14088 6123c6193,0 11214,5021 11214,11214 0,2087 -569,4039 -1562,5712l-236 -139c967,-1633 1524,-3538 1524,-5573 0,-6041 -4898,-10939 -10940,-10939 -6041,0 -10940,4898 -10940,10939 0,2035 556,3940 1524,5573l-236 139c-992,-1673 -1563,-3625 -1563,-5712 0,-6193 5022,-11214 11215,-11214l0 0z"/>
           <path class="fil9" d="M4425 11899l121 -211 1023 589 -123 211 -1021 -589zm-1425 5560l0 -244 1179 0 0 244 -1179 0zm1546 5528l-121 -211 1021 -590 123 211 -1023 590zm14980 -15313l211 121 -589 1023 -211 -123 589 -1021zm4103 4014l122 211 -1021 589 -122 -211 1021 -589zm1547 5527l0 244 -1181 0 0 -244 1181 0zm-1425 5561l-122 211 -1021 -590 122 -211 1021 590zm-9785 -16527l243 0 0 1181 -243 0 0 -1181zm-5528 1546l211 -121 590 1021 -211 123 -590 -1023z"/>
           <path class="fil9" d="M6196 9549l103 -103 589 589 -103 103 -589 -589zm-2836 4989l37 -141 805 216 -39 140 -803 -215zm37 5739l-37 -141 803 -215 39 141 -805 215zm13490 -13668l141 37 -216 805 -140 -37 215 -805zm4990 2837l102 103 -589 589 -102 -103 589 -589zm2903 4951l37 141 -805 215 -37 -140 805 -216zm37 5739l-37 141 -805 -215 37 -141 805 215zm-13669 -13490l141 -37 215 805 -141 37 -215 -805z"/>
          </g>
         </g>
        </g>
        <g>
         <path class="fil12" d="M27286 20392l188 0 0 48 -188 0 0 162 188 0 0 47 -188 0 0 162 188 0 0 46 -188 0 0 162 188 0 0 48 -188 0 0 110c130,34 225,151 225,289 0,166 -133,299 -299,299 -164,0 -297,-133 -297,-299 0,-138 95,-255 223,-289l0 -883c0,-40 34,-75 74,-75l0 0c41,0 74,35 74,75l0 98z"/>
         <polygon class="fil12" points="28172,22188 33474,22188 35542,22000 26103,22000 "/>
        </g>
       </g>
      </g>
     </g>
    </g>
   </g>
   <path class="fil0" d="M27624 25078c-1003,-425 -1907,-1040 -2667,-1799l-677 678c848,847 1857,1533 2978,2006l366 -885zm3212 661c-1094,-8 -2139,-224 -3094,-613l-367 886c1069,435 2237,678 3461,686l0 -959zm3704 224c1121,-473 2131,-1159 2978,-2006l-678 -678c-759,759 -1663,1374 -2667,1799l367 885zm-3578 735c1225,-8 2391,-251 3462,-686l-368 -886c-956,389 -2000,605 -3094,613l0 959z"/>
   <path class="fil0" d="M34174 9623c1003,424 1907,1039 2667,1799l677 -678c-848,-847 -1857,-1534 -2978,-2007l-366 886zm-3212 -662c1094,8 2139,225 3094,613l367 -886c-1069,-435 -2237,-678 -3461,-685l0 958zm-3704 -224c-1121,473 -2131,1160 -2978,2007l678 678c759,-760 1663,-1375 2667,-1799l-367 -886zm3578 -734c-1225,7 -2392,250 -3462,685l368 886c956,-388 2000,-605 3094,-613l0 -958z"/>
  </g>
  <g id="_1250707361072">
   <g>
    <path class="fil13" d="M47667 6376c-6041,0 -10939,4899 -10939,10940 0,2036 556,3940 1525,5572l-237 140c-992,-1673 -1563,-3625 -1563,-5712 0,-6193 5021,-11214 11214,-11214l0 274z"/>
    <path class="fil13" d="M38005 11878l122 -211 1021 591 -121 211 -1022 -591zm-1425 5560l0 -243 1180 0 0 243 -1180 0zm1547 5528l-122 -211 1022 -590 121 211 -1021 590zm9541 -16738l0 1181 -121 0 0 -1181 121 0zm-5649 1548l211 -123 590 1023 -211 121 -590 -1021z"/>
    <path class="fil13" d="M39776 9528l103 -103 589 589 -103 103 -589 -589zm-2837 4989l38 -141 804 216 -37 141 -805 -216zm38 5740l-38 -140 805 -217 37 141 -804 216zm7751 -13631l140 -38 217 805 -141 37 -216 -804z"/>
   </g>
   <g>
    <path class="fil13" d="M47668 6376c6053,0 10961,4899 10961,10940 0,2036 -558,3940 -1528,5572l237 140c994,-1673 1566,-3625 1566,-5712 0,-6193 -5031,-11214 -11236,-11214l0 274z"/>
    <path class="fil13" d="M57349 11878l-122 -211 -1023 591 121 211 1024 -591zm1428 5560l0 -243 -1183 0 0 243 1183 0zm-1550 5528l122 -211 -1024 -590 -121 211 1023 590zm-9559 -16738l0 1181 121 0 0 -1181 -121 0zm5659 1548l-211 -123 -591 1023 211 121 591 -1021z"/>
    <path class="fil13" d="M55574 9528l-103 -103 -590 589 103 103 590 -589zm2843 4989l-38 -141 -806 216 37 141 807 -216zm-38 5740l38 -140 -807 -217 -37 141 806 216zm-7766 -13631l-141 -38 -216 805 141 37 216 -804z"/>
   </g>
  </g>
  <g id="_1250707358064">
   <g>
    <path class="fil14" d="M14065 6421c-6041,0 -10939,4898 -10939,10940 0,2035 555,3940 1523,5572l-236 140c-992,-1674 -1563,-3626 -1563,-5712 0,-6194 5022,-11214 11215,-11214l0 274z"/>
    <path class="fil14" d="M4425 11899l121 -211 1023 589 -123 211 -1021 -589zm-1425 5560l0 -244 1179 0 0 244 -1179 0zm1546 5528l-121 -211 1021 -590 123 211 -1023 590zm9542 -16738l0 1181 -122 0 0 -1181 122 0zm-5650 1546l211 -121 590 1021 -211 123 -590 -1023z"/>
    <path class="fil14" d="M6196 9549l103 -103 589 589 -103 103 -589 -589zm-2836 4989l37 -141 805 216 -39 140 -803 -215zm37 5739l-37 -141 803 -215 39 141 -805 215zm7751 -13631l141 -37 215 805 -141 37 -215 -805z"/>
   </g>
   <g>
    <path class="fil14" d="M14111 6421c6026,0 10911,4898 10911,10940 0,2035 -554,3940 -1520,5572l235 140c990,-1674 1559,-3626 1559,-5712 0,-6194 -5008,-11214 -11185,-11214l0 274z"/>
    <path class="fil14" d="M23726 11899l-121 -211 -1020 589 122 211 1019 -589zm1421 5560l0 -244 -1176 0 0 244 1176 0zm-1542 5528l121 -211 -1019 -590 -122 211 1020 590zm-9517 -16738l0 1181 122 0 0 -1181 -122 0zm5635 1546l-210 -121 -589 1021 211 123 588 -1023z"/>
    <path class="fil14" d="M21960 9549l-104 -103 -587 589 103 103 588 -589zm2828 4989l-37 -141 -802 216 38 140 801 -215zm-37 5739l37 -141 -801 -215 -38 141 802 215zm-7731 -13631l-140 -37 -214 805 140 37 214 -805z"/>
   </g>
  </g>
 </g>
</svg>
