<?xml version="1.0" encoding="UTF-8"?>
<!DOCTYPE svg PUBLIC "-//W3C//DTD SVG 1.1//EN" "http://www.w3.org/Graphics/SVG/1.1/DTD/svg11.dtd">
<!-- Creator: CorelDRAW X7 -->
<svg xmlns="http://www.w3.org/2000/svg" xml:space="preserve" width="145mm" height="50mm" version="1.1" style="shape-rendering:geometricPrecision; text-rendering:geometricPrecision; image-rendering:optimizeQuality; fill-rule:evenodd; clip-rule:evenodd"
viewBox="0 0 14500 5000"
 xmlns:xlink="http://www.w3.org/1999/xlink">
 <defs>
  <style type="text/css">
   <![CDATA[
    .fil3 {fill:#636563}
    .fil2 {fill:#404342}
    .fil0 {fill:#444645}
    .fil1 {fill:#70706F}
   ]]>
  </style>
 </defs>
 <g id="Layer_x0020_1">
  <metadata id="CorelCorpID_0Corel-Layer"/>
  <path class="fil0" d="M14283 1865l-241 2302 -7422 233 -6160 -253 -211 -2409 -106 -1636 14257 0 -117 1763zm-10324 243c-1004,-425 -1908,-1040 -2667,-1799l-678 678c848,847 1857,1533 2978,2006l367 -885zm3211 662c-1094,-9 -2138,-225 -3094,-614l-367 887c1070,434 2238,677 3461,685l0 -958zm3705 223c1121,-473 2131,-1159 2978,-2006l-678 -678c-759,759 -1663,1374 -2667,1799l367 885zm-3579 735c1225,-8 2392,-251 3463,-685l-368 -887c-956,389 -2001,605 -3095,614l0 958z"/>
  <path class="fil1" d="M7255 4259c-2724,0 -5191,-1105 -6977,-2891l255 -254c1720,1721 4097,2784 6722,2784 2625,0 5000,-1063 6720,-2784l255 254c-1785,1786 -4252,2891 -6975,2891l0 0z"/>
  <path class="fil2" d="M7255 2246c-2088,0 -3985,-815 -5392,-2144l10783 0c-1406,1329 -3304,2144 -5391,2144l0 0z"/>
  <polygon class="fil3" points="14400,116 14391,102 14400,102 "/>
 </g>
</svg>
