<?xml version="1.0" encoding="UTF-8"?>
<!DOCTYPE svg PUBLIC "-//W3C//DTD SVG 1.1//EN" "http://www.w3.org/Graphics/SVG/1.1/DTD/svg11.dtd">
<!-- Creator: CorelDRAW X7 -->
<svg xmlns="http://www.w3.org/2000/svg" xml:space="preserve" width="215.9mm" height="279.4mm" version="1.1" style="shape-rendering:geometricPrecision; text-rendering:geometricPrecision; image-rendering:optimizeQuality; fill-rule:evenodd; clip-rule:evenodd"
viewBox="0 0 21590 27940"
 xmlns:xlink="http://www.w3.org/1999/xlink">
 <defs>
  <style type="text/css">
   <![CDATA[
    .fil0 {fill:#9ACA48}
   ]]>
  </style>
 </defs>
 <g id="Layer_x0020_1">
  <metadata id="CorelCorpID_0Corel-Layer"/>
  <path class="fil0" d="M14034 18133c1003,-425 1907,-1040 2667,-1799l677 678c-848,847 -1857,1532 -2978,2006l-366 -885zm-3212 662c1094,-9 2139,-226 3094,-614l367 885c-1069,436 -2237,678 -3461,687l0 -958zm-3704 223c-1121,-474 -2131,-1159 -2978,-2006l678 -678c759,759 1663,1374 2667,1799l-367 885zm3578 735c-1225,-9 -2392,-251 -3462,-687l368 -885c956,388 2000,605 3094,614l0 958z"/>
 </g>
</svg>
