<?xml version="1.0" encoding="UTF-8"?>
<!DOCTYPE svg PUBLIC "-//W3C//DTD SVG 1.1//EN" "http://www.w3.org/Graphics/SVG/1.1/DTD/svg11.dtd">
<!-- Creator: CorelDRAW X7 -->
<svg xmlns="http://www.w3.org/2000/svg" xml:space="preserve" width="779.4mm" height="515.9mm" version="1.1" style="shape-rendering:geometricPrecision; text-rendering:geometricPrecision; image-rendering:optimizeQuality; fill-rule:evenodd; clip-rule:evenodd"
viewBox="0 0 77940 51590"
 xmlns:xlink="http://www.w3.org/1999/xlink">
 <defs>
  <style type="text/css">
   <![CDATA[
    .fil3 {fill:#FEFEFE}
    .fil4 {fill:#FFD326}
    .fil12 {fill:#F4813D}
    .fil9 {fill:#636563}
    .fil0 {fill:#404342}
    .fil1 {fill:#444645}
    .fil2 {fill:#70706F}
    .fil8 {fill:#805CA5}
    .fil6 {fill:#3E2C54}
    .fil11 {fill:#1F5C91}
    .fil10 {fill:#273A50}
    .fil7 {fill:#FEFEFE;fill-rule:nonzero}
    .fil5 {fill:#9ACA48;fill-rule:nonzero}
   ]]>
  </style>
 </defs>
 <g id="Layer_x0020_1">
  <metadata id="CorelCorpID_0Corel-Layer"/>
  <g id="_2207086718240">
   <g>
    <g>
     <polygon class="fil0" points="8141,8499 69877,8499 69877,43071 8141,43071 "/>
     <path class="fil1" d="M69877 17632l0 16306c-2815,4851 -8065,8113 -14079,8113 -2621,0 -5098,-621 -7290,-1722l-19166 0c-2194,1101 -4670,1722 -7292,1722 -5894,0 -11056,-3135 -13909,-7828l0 -16876c2853,-4693 8015,-7828 13909,-7828 2622,0 5098,621 7292,1724l19166 0c2193,-1103 4669,-1724 7290,-1724 6014,0 11264,3262 14079,8113l0 0z"/>
    </g>
    <g>
     <path class="fil2" d="M38988 15947c2723,0 5190,1105 6976,2891l-255 254c-1720,-1721 -4096,-2784 -6721,-2784 -2625,0 -5001,1063 -6721,2784l-254 -254c1784,-1786 4251,-2891 6975,-2891l0 0z"/>
     <path class="fil2" d="M38988 35678c2723,0 5190,-1105 6976,-2889l-255 -255c-1720,1720 -4096,2784 -6721,2784 -2625,0 -5001,-1064 -6721,-2784l-254 255c1784,1784 4251,2889 6975,2889l0 0z"/>
     <g>
      <path class="fil3" d="M31960 17067l-412 0 45 -165 396 0 35 -129 -397 0 46 -169 411 0 36 -134 -548 0c-32,122 -66,244 -99,366 -32,122 -65,245 -97,367l548 0 36 -136z"/>
      <polygon class="fil3" points="46065,17203 46138,16933 46505,16933 46539,16804 46173,16804 46226,16605 46613,16605 46649,16472 46123,16472 45928,17203 "/>
      <g>
       <g>
        <path class="fil0" d="M38991 12374c793,0 1436,643 1436,1436 0,794 -643,1437 -1436,1437 -794,0 -1437,-643 -1437,-1437 0,-793 643,-1436 1437,-1436l0 0z"/>
        <path class="fil4" d="M38628 13251l616 0 0 476 -616 0 0 -476zm734 50l0 466c98,31 116,187 134,345 14,128 29,256 83,293 146,99 295,-269 143,-480 -103,-142 -118,-237 -132,-320 -15,-98 -47,-198 -131,-261 -31,-23 -65,-35 -97,-43l0 0zm-851 -185l851 0 0 126c43,7 89,23 133,56 96,71 135,183 153,298 13,76 26,163 121,295 189,261 -11,704 -222,563 -78,-53 -94,-193 -110,-335 -14,-123 -27,-245 -75,-286l0 672 -851 0 0 -1389z"/>
       </g>
       <g>
        <path class="fil0" d="M39044 36472c793,0 1436,643 1436,1437 0,793 -643,1436 -1436,1436 -794,0 -1437,-643 -1437,-1436 0,-794 643,-1437 1437,-1437l0 0z"/>
        <path class="fil5" d="M39442 38128l376 57c-74,204 -184,360 -331,467 -147,108 -319,162 -516,162 -222,0 -395,-67 -520,-201 -125,-135 -188,-329 -188,-585 0,-207 42,-396 126,-568 84,-172 200,-303 349,-394 148,-91 310,-137 485,-137 197,0 355,53 477,158 121,106 192,250 214,432l-358 35c-20,-106 -58,-183 -114,-231 -57,-48 -132,-71 -226,-71 -102,0 -199,31 -288,94 -89,63 -160,162 -214,296 -53,134 -80,268 -80,401 0,146 35,259 104,339 69,80 156,119 260,119 96,0 184,-31 264,-94 81,-63 140,-156 180,-279z"/>
       </g>
       <g>
        <g>
         <g>
          <g>
           <path class="fil0" d="M38988 17960c4336,0 7852,3516 7852,7853 0,4336 -3516,7852 -7852,7852 -4337,0 -7853,-3516 -7853,-7852 0,-4337 3516,-7853 7853,-7853l0 0z"/>
           <g>
            <g>
             <g>
              <g>
               <path class="fil6" d="M55777 14578c6206,0 11236,5030 11236,11235 0,6204 -5030,11234 -11236,11234 -6204,0 -11234,-5030 -11234,-11234 0,-6205 5030,-11235 11234,-11235l0 0z"/>
               <path class="fil3" d="M55777 19583c3430,0 6210,2780 6210,6209 0,3430 -2780,6209 -6210,6209 -3429,0 -6209,-2779 -6209,-6209 0,-3429 2780,-6209 6209,-6209l0 0zm0 -195c3538,0 6405,2867 6405,6404 0,3537 -2867,6404 -6405,6404 -3536,0 -6403,-2867 -6403,-6404 0,-3537 2867,-6404 6403,-6404l0 0z"/>
               <polygon class="fil3" points="54157,24531 57399,24531 58663,24647 52893,24647 "/>
               <polygon class="fil3" points="54157,27499 57399,27499 58663,27384 52893,27384 "/>
               <path class="fil7" d="M54771 28017l150 0 -23 101c54,-75 114,-112 178,-112 23,0 47,5 73,15l-60 115c-14,-5 -29,-7 -45,-7 -25,0 -48,6 -70,18 -32,18 -57,43 -75,72 -17,30 -35,81 -52,154l-39 162 -159 0 122 -518z"/>
               <path id="1" class="fil7" d="M55214 28017l151 0 -13 53c33,-24 63,-41 89,-50 27,-9 56,-14 85,-14 59,0 107,19 144,55 36,38 54,93 54,167 0,95 -32,175 -97,239 -53,53 -116,79 -188,79 -75,0 -132,-27 -171,-83l-65 270 -158 0 169 -716zm96 297c0,41 11,72 33,94 21,22 46,33 74,33 23,0 45,-7 67,-21 22,-14 42,-40 60,-78 18,-38 27,-77 27,-117 0,-39 -10,-68 -31,-88 -20,-21 -45,-31 -75,-31 -24,0 -47,7 -69,21 -22,14 -42,39 -60,75 -17,37 -26,74 -26,112z"/>
               <path id="2" class="fil7" d="M55894 28017l152 0 -16 64c59,-50 120,-75 184,-75 86,0 136,31 150,92 21,-27 50,-49 89,-66 38,-17 77,-26 116,-26 46,0 82,11 110,32 26,21 40,51 40,89 0,18 -5,49 -15,92l-75 316 -158 0 74 -316c10,-40 14,-62 14,-67 0,-15 -5,-26 -15,-34 -11,-8 -25,-12 -43,-12 -39,0 -73,17 -104,51 -25,27 -45,75 -62,143l-55 235 -158 0 73 -313c9,-36 13,-59 13,-69 0,-15 -5,-26 -17,-35 -11,-8 -25,-12 -42,-12 -23,0 -47,8 -72,24 -24,15 -44,38 -58,68 -9,18 -19,51 -31,100l-57 237 -159 0 122 -518z"/>
              </g>
              <g>
               <path class="fil8" d="M51620 15658c850,-348 1751,-594 2690,-720l138 1034c-849,114 -1662,335 -2428,649l-400 -963zm-2479 1423c736,-562 1544,-1033 2410,-1394l399 963c-781,327 -1510,752 -2174,1258l-635 -827zm-2029 2015c571,-737 1232,-1399 1970,-1970l634 828c-665,515 -1262,1112 -1777,1776l-827 -634zm-1440 2469c362,-865 833,-1674 1395,-2410l826 635c-505,664 -930,1394 -1258,2174l-963 -399zm-748 2761c126,-941 371,-1842 720,-2690l963 398c-315,766 -536,1580 -649,2428l-1034 -136zm-10 2858c-58,-455 -87,-919 -87,-1392 0,-472 29,-936 87,-1392l1034 136c-52,411 -79,831 -79,1256 0,426 26,845 79,1257l-1034 135zm730 2765c-349,-848 -594,-1751 -720,-2690l1034 -136c113,848 334,1662 649,2427l-963 399zm695 1399c-252,-426 -475,-869 -667,-1329l963 -400c175,415 376,816 602,1200l-898 529zm19545 -1329c-193,460 -417,903 -667,1329l-898 -529c226,-384 427,-785 602,-1198l963 398zm748 -2760c-126,940 -372,1842 -720,2690l-963 -399c314,-765 535,-1579 649,-2427l1034 136zm10 -2859c58,456 87,920 87,1392 0,473 -29,937 -87,1392l-1034 -135c52,-412 79,-831 79,-1257 0,-425 -27,-845 -79,-1256l1034 -136zm-730 -2764c348,848 594,1749 720,2690l-1034 136c-113,-848 -336,-1662 -649,-2428l963 -398zm-1422 -2481c560,736 1032,1545 1394,2410l-963 400c-328,-781 -752,-1511 -1259,-2175l828 -635zm-2015 -2029c736,571 1399,1233 1969,1970l-827 634c-515,-664 -1113,-1261 -1777,-1776l635 -828zm-2471 -1439c865,361 1675,832 2411,1394l-634 827c-665,-506 -1395,-931 -2176,-1258l399 -963zm-2760 -749c940,126 1842,371 2691,720l-399 963c-766,-314 -1579,-535 -2428,-649l136 -1034zm-1467 -97c472,0 937,30 1393,88l-136 1033c-411,-52 -830,-79 -1257,-79 -424,0 -844,27 -1256,79l-135 -1033c455,-58 920,-88 1391,-88l0 0z"/>
               <path class="fil9" d="M46114 20354l123 -211 1021 590 -121 211 -1023 -590zm-1424 5560l0 -243 1180 0 0 243 -1180 0zm1547 5528l-123 -211 1023 -591 121 212 -1021 590zm14979 -15313l211 122 -590 1021 -211 -121 590 -1022zm4103 4014l123 211 -1023 590 -121 -211 1021 -590zm1546 5528l0 243 -1179 0 0 -243 1179 0zm-1423 5560l-123 211 -1021 -590 121 -212 1023 591zm-9786 -16527l244 0 0 1180 -244 0 0 -1180zm-5527 1547l211 -122 590 1022 -211 121 -590 -1021z"/>
              </g>
             </g>
             <path class="fil9" d="M55777 14578c6195,0 11216,5020 11216,11214 0,2086 -571,4038 -1563,5711l-237 -139c968,-1632 1525,-3536 1525,-5572 0,-6042 -4898,-10940 -10941,-10940 -6041,0 -10939,4898 -10939,10940 0,2036 556,3940 1525,5572l-237 139c-992,-1673 -1562,-3625 -1562,-5711 0,-6194 5020,-11214 11213,-11214l0 0z"/>
            </g>
            <path class="fil9" d="M47886 18003l103 -102 589 588 -103 103 -589 -589zm-2837 4990l38 -141 804 216 -37 141 -805 -216zm38 5740l-38 -141 805 -216 37 141 -804 216zm13491 -13670l139 38 -215 804 -140 -37 216 -805zm4989 2838l103 102 -589 589 -104 -103 590 -588zm2902 4951l38 141 -805 216 -38 -141 805 -216zm38 5740l-38 141 -805 -216 38 -141 805 216zm-13669 -13491l140 -38 216 805 -140 37 -216 -804z"/>
           </g>
          </g>
          <g>
           <path class="fil10" d="M22198 14636c6172,0 11177,5004 11177,11177 0,6172 -5005,11176 -11177,11176 -6173,0 -11177,-5004 -11177,-11176 0,-6173 5004,-11177 11177,-11177l0 0z"/>
           <path class="fil3" d="M22198 19603c3429,0 6209,2781 6209,6210 0,3428 -2780,6209 -6209,6209 -3430,0 -6210,-2781 -6210,-6209 0,-3429 2780,-6210 6210,-6210l0 0zm0 -194c3536,0 6403,2867 6403,6404 0,3537 -2867,6404 -6403,6404 -3538,0 -6405,-2867 -6405,-6404 0,-3537 2867,-6404 6405,-6404l0 0z"/>
           <polygon class="fil3" points="20577,24552 23819,24552 25083,24667 19312,24667 "/>
           <polygon class="fil3" points="20577,27520 23819,27520 25083,27405 19312,27405 "/>
           <path class="fil3" d="M22997 27914l-197 732 128 0 70 -263c6,-19 14,-38 25,-55 10,-16 23,-31 38,-45 15,-12 31,-23 48,-31 17,-6 36,-9 54,-11 24,0 42,5 57,15 15,9 25,24 30,43 5,20 4,45 -5,77l-73 270 128 0 73 -271c14,-51 18,-95 13,-132 -5,-39 -20,-67 -46,-88 -26,-20 -63,-31 -111,-31 -20,0 -40,1 -59,6 -20,5 -41,14 -61,25 -21,11 -42,27 -62,46l77 -287 -127 0zm-197 -68l-585 887 132 0 587 -887 -134 0zm-974 800l74 -275c4,-17 11,-33 21,-49 9,-15 20,-29 32,-41 14,-11 28,-21 44,-27 16,-8 32,-11 49,-11 17,0 31,3 42,9 10,8 17,17 22,29 5,11 8,25 8,39 -2,15 -4,31 -9,49l-74 277 127 0 75 -277c14,-52 18,-97 11,-133 -6,-37 -23,-64 -50,-84 -27,-18 -66,-28 -114,-28 -22,0 -44,3 -66,7 -23,7 -44,17 -66,30 -22,14 -44,32 -65,57 -4,-24 -13,-42 -24,-57 -12,-13 -28,-23 -45,-31 -19,-5 -37,-8 -58,-8 -17,0 -35,2 -54,7 -18,4 -37,11 -54,22 -17,10 -33,25 -48,42l7 -63 -117 0 -138 516 127 0 74 -275c5,-17 11,-33 21,-49 9,-16 20,-30 32,-41 12,-12 27,-22 42,-30 16,-6 32,-10 49,-10 18,0 33,4 44,10 11,8 19,18 24,30 7,11 9,25 10,41 0,16 -2,32 -7,49l-74 275 128 0zm-816 -731l-196 731 127 0 63 -233 139 233 153 0 3 -8 -168 -265 273 -234 1 -8 -152 0 -229 207 113 -423 -127 0z"/>
          </g>
         </g>
         <g>
          <path class="fil11" d="M18041 15678c848,-348 1750,-593 2690,-719l136 1034c-848,114 -1662,335 -2428,648l-398 -963zm-2480 1424c735,-562 1545,-1033 2410,-1396l399 964c-781,328 -1511,751 -2175,1259l-634 -827zm-2028 2015c569,-737 1232,-1399 1968,-1970l634 828c-664,513 -1262,1111 -1776,1775l-826 -633zm-1441 2469c363,-865 833,-1674 1395,-2410l826 635c-506,664 -931,1394 -1258,2174l-963 -399zm-749 2760c126,-940 372,-1841 720,-2691l963 399c-313,767 -534,1581 -648,2428l-1035 -136zm-9 2859c-59,-455 -88,-921 -88,-1392 0,-472 29,-936 88,-1393l1033 137c-52,411 -79,830 -79,1256 0,426 27,844 79,1257l-1033 135zm729 2765c-348,-848 -592,-1751 -720,-2690l1035 -136c114,847 335,1662 648,2427l-963 399zm695 1398c-250,-425 -474,-868 -666,-1329l963 -399c174,415 375,815 602,1199l-899 529zm19546 -1329c-193,461 -416,904 -667,1329l-899 -529c226,-384 429,-784 602,-1199l964 399zm747 -2760c-126,940 -370,1843 -719,2691l-964 -399c315,-765 536,-1579 650,-2427l1033 135zm11 -2859c57,457 88,921 88,1393 0,471 -30,937 -88,1392l-1035 -135c54,-413 79,-831 79,-1257 1,-426 -25,-845 -79,-1256l1035 -137zm-730 -2765c349,850 593,1751 719,2691l-1033 136c-114,-847 -335,-1661 -649,-2428l963 -399zm-1423 -2479c562,736 1032,1545 1395,2410l-963 399c-328,-780 -753,-1510 -1259,-2174l827 -635zm-2015 -2029c737,571 1399,1233 1969,1970l-827 633c-514,-664 -1111,-1260 -1776,-1775l634 -828zm-2470 -1441c866,363 1675,834 2410,1396l-634 827c-664,-508 -1394,-931 -2175,-1259l399 -964zm-2759 -747c939,126 1841,371 2690,719l-399 963c-766,-313 -1580,-534 -2427,-648l136 -1034zm-1467 -98c472,0 936,29 1393,87l-137 1034c-412,-52 -830,-78 -1256,-78 -426,0 -845,26 -1257,78l-136 -1034c456,-58 921,-87 1393,-87l0 0z"/>
          <g>
           <path class="fil9" d="M22198 14599c6193,0 11214,5020 11214,11214 0,2086 -570,4038 -1562,5711l-236 -139c967,-1632 1523,-3538 1523,-5572 0,-6042 -4898,-10940 -10939,-10940 -6042,0 -10940,4898 -10940,10940 0,2034 556,3940 1524,5572l-236 139c-993,-1673 -1563,-3625 -1563,-5711 0,-6194 5021,-11214 11215,-11214l0 0z"/>
           <path class="fil9" d="M12535 20375l121 -211 1022 589 -122 211 -1021 -589zm-1425 5560l0 -245 1179 0 0 245 -1179 0zm1546 5528l-121 -211 1021 -591 122 212 -1022 590zm14980 -15313l211 121 -589 1022 -211 -122 589 -1021zm4103 4014l122 211 -1021 589 -123 -211 1022 -589zm1547 5526l0 245 -1181 0 0 -245 1181 0zm-1425 5562l-122 211 -1022 -590 123 -212 1021 591zm-9785 -16527l243 0 0 1180 -243 0 0 -1180zm-5528 1546l211 -121 590 1021 -211 122 -590 -1022z"/>
           <path class="fil9" d="M14305 18024l104 -102 589 588 -104 103 -589 -589zm-2836 4990l37 -141 805 216 -38 139 -804 -214zm37 5739l-37 -141 804 -215 38 141 -805 215zm13491 -13669l141 37 -216 805 -140 -37 215 -805zm4989 2838l103 102 -589 589 -102 -103 588 -588zm2903 4951l37 141 -805 214 -37 -139 805 -216zm37 5739l-37 141 -805 -215 37 -141 805 215zm-13668 -13491l141 -37 215 805 -141 37 -215 -805z"/>
          </g>
         </g>
        </g>
        <g>
         <path class="fil12" d="M35396 28867l188 0 0 49 -188 0 0 161 188 0 0 47 -188 0 0 162 188 0 0 47 -188 0 0 162 188 0 0 48 -188 0 0 110c130,33 225,150 225,289 0,165 -133,298 -299,298 -164,0 -298,-133 -298,-298 0,-139 96,-256 224,-289l0 -883c0,-41 33,-75 74,-75l0 0c41,0 74,34 74,75l0 97z"/>
         <polygon class="fil12" points="36281,30663 41584,30663 43652,30476 34213,30476 "/>
        </g>
       </g>
      </g>
     </g>
    </g>
   </g>
   <path class="fil0" d="M35734 33553c-1004,-425 -1907,-1040 -2667,-1799l-678 678c849,847 1857,1534 2978,2006l367 -885zm3212 662c-1094,-9 -2139,-225 -3095,-614l-366 887c1069,434 2237,678 3461,685l0 -958zm3704 223c1121,-472 2131,-1159 2978,-2006l-678 -678c-759,759 -1663,1374 -2667,1799l367 885zm-3578 735c1224,-7 2391,-251 3462,-685l-368 -887c-956,389 -2000,605 -3094,614l0 958z"/>
   <path class="fil0" d="M42283 18098c1004,425 1908,1040 2667,1799l678 -678c-848,-847 -1857,-1533 -2978,-2006l-367 885zm-3211 -662c1094,9 2138,225 3094,614l367 -887c-1070,-434 -2238,-677 -3461,-685l0 958zm-3704 -223c-1122,473 -2132,1159 -2979,2006l678 678c760,-759 1664,-1374 2667,-1799l-366 -885zm3578 -735c-1225,8 -2392,251 -3462,685l368 887c955,-389 2000,-605 3094,-614l0 -958z"/>
  </g>
 </g>
</svg>
